<mxfile host="Electron" agent="Mozilla/5.0 (Windows NT 10.0; Win64; x64) AppleWebKit/537.36 (KHTML, like Gecko) draw.io/24.7.8 Chrome/128.0.6613.36 Electron/32.0.1 Safari/537.36" version="24.7.8">
  <diagram name="Pagina-1" id="vnqiKeFqIoHdIlABl-fI">
    <mxGraphModel dx="3432" dy="4234" grid="1" gridSize="10" guides="1" tooltips="1" connect="1" arrows="1" fold="1" page="1" pageScale="1" pageWidth="827" pageHeight="1169" math="0" shadow="0">
      <root>
        <mxCell id="0" />
        <mxCell id="1" parent="0" />
        <mxCell id="nl0A60HQpfqVXvjpLoiu-9" style="edgeStyle=orthogonalEdgeStyle;rounded=0;orthogonalLoop=1;jettySize=auto;html=1;exitX=0.5;exitY=1;exitDx=0;exitDy=0;entryX=1;entryY=0.5;entryDx=0;entryDy=0;" edge="1" parent="1" source="MX0C3Jx3wyEqu1No00II-1" target="nl0A60HQpfqVXvjpLoiu-1">
          <mxGeometry relative="1" as="geometry" />
        </mxCell>
        <mxCell id="nl0A60HQpfqVXvjpLoiu-10" style="edgeStyle=orthogonalEdgeStyle;rounded=0;orthogonalLoop=1;jettySize=auto;html=1;exitX=0.5;exitY=0;exitDx=0;exitDy=0;entryX=1;entryY=0.5;entryDx=0;entryDy=0;" edge="1" parent="1" source="MX0C3Jx3wyEqu1No00II-1" target="nl0A60HQpfqVXvjpLoiu-3">
          <mxGeometry relative="1" as="geometry" />
        </mxCell>
        <mxCell id="MX0C3Jx3wyEqu1No00II-1" value="Account" style="rounded=0;whiteSpace=wrap;html=1;" parent="1" vertex="1">
          <mxGeometry x="130" y="220" width="120" height="60" as="geometry" />
        </mxCell>
        <mxCell id="MX0C3Jx3wyEqu1No00II-2" value="&lt;div&gt;User&lt;/div&gt;" style="rounded=0;whiteSpace=wrap;html=1;" parent="1" vertex="1">
          <mxGeometry x="500" y="220" width="120" height="60" as="geometry" />
        </mxCell>
        <mxCell id="MX0C3Jx3wyEqu1No00II-3" value="authenticate" style="rhombus;whiteSpace=wrap;html=1;" parent="1" vertex="1">
          <mxGeometry x="350" y="210" width="80" height="80" as="geometry" />
        </mxCell>
        <mxCell id="MX0C3Jx3wyEqu1No00II-4" value="Car" style="rounded=0;whiteSpace=wrap;html=1;" parent="1" vertex="1">
          <mxGeometry x="900" y="220" width="120" height="60" as="geometry" />
        </mxCell>
        <mxCell id="MX0C3Jx3wyEqu1No00II-5" value="Owns" style="rhombus;whiteSpace=wrap;html=1;" parent="1" vertex="1">
          <mxGeometry x="710" y="210" width="80" height="80" as="geometry" />
        </mxCell>
        <mxCell id="MX0C3Jx3wyEqu1No00II-6" value="Document" style="rounded=0;whiteSpace=wrap;html=1;" parent="1" vertex="1">
          <mxGeometry x="1320" y="570" width="120" height="60" as="geometry" />
        </mxCell>
        <mxCell id="MX0C3Jx3wyEqu1No00II-7" value="Has" style="rhombus;whiteSpace=wrap;html=1;" parent="1" vertex="1">
          <mxGeometry x="980" y="370" width="80" height="80" as="geometry" />
        </mxCell>
        <mxCell id="MX0C3Jx3wyEqu1No00II-8" value="Accepts/Makes" style="rhombus;whiteSpace=wrap;html=1;" parent="1" vertex="1">
          <mxGeometry x="510" y="320" width="100" height="80" as="geometry" />
        </mxCell>
        <mxCell id="MX0C3Jx3wyEqu1No00II-10" value="&lt;div&gt;Reservation&lt;/div&gt;" style="rounded=0;whiteSpace=wrap;html=1;" parent="1" vertex="1">
          <mxGeometry x="500" y="480" width="120" height="60" as="geometry" />
        </mxCell>
        <mxCell id="MX0C3Jx3wyEqu1No00II-12" value="Has" style="rhombus;whiteSpace=wrap;html=1;" parent="1" vertex="1">
          <mxGeometry x="420" y="600" width="80" height="80" as="geometry" />
        </mxCell>
        <mxCell id="MX0C3Jx3wyEqu1No00II-13" value="Books" style="rhombus;whiteSpace=wrap;html=1;" parent="1" vertex="1">
          <mxGeometry x="620" y="600" width="80" height="80" as="geometry" />
        </mxCell>
        <mxCell id="MX0C3Jx3wyEqu1No00II-14" value="Position" style="rounded=0;whiteSpace=wrap;html=1;" parent="1" vertex="1">
          <mxGeometry x="280" y="720" width="120" height="60" as="geometry" />
        </mxCell>
        <mxCell id="MX0C3Jx3wyEqu1No00II-15" value="Ride" style="rounded=0;whiteSpace=wrap;html=1;" parent="1" vertex="1">
          <mxGeometry x="720" y="720" width="120" height="60" as="geometry" />
        </mxCell>
        <mxCell id="MX0C3Jx3wyEqu1No00II-16" value="Pay" style="rhombus;whiteSpace=wrap;html=1;" parent="1" vertex="1">
          <mxGeometry x="740" y="860" width="80" height="80" as="geometry" />
        </mxCell>
        <mxCell id="MX0C3Jx3wyEqu1No00II-17" value="Payment" style="rounded=0;whiteSpace=wrap;html=1;" parent="1" vertex="1">
          <mxGeometry x="500" y="870" width="120" height="60" as="geometry" />
        </mxCell>
        <mxCell id="MX0C3Jx3wyEqu1No00II-18" value="" style="endArrow=none;html=1;rounded=0;entryX=0;entryY=0.5;entryDx=0;entryDy=0;exitX=1;exitY=0.5;exitDx=0;exitDy=0;" parent="1" source="MX0C3Jx3wyEqu1No00II-3" target="MX0C3Jx3wyEqu1No00II-2" edge="1">
          <mxGeometry width="50" height="50" relative="1" as="geometry">
            <mxPoint x="490" y="440" as="sourcePoint" />
            <mxPoint x="540" y="390" as="targetPoint" />
          </mxGeometry>
        </mxCell>
        <mxCell id="MX0C3Jx3wyEqu1No00II-19" value="" style="endArrow=none;html=1;rounded=0;entryX=0;entryY=0.5;entryDx=0;entryDy=0;exitX=1;exitY=0.5;exitDx=0;exitDy=0;" parent="1" source="MX0C3Jx3wyEqu1No00II-1" target="MX0C3Jx3wyEqu1No00II-3" edge="1">
          <mxGeometry width="50" height="50" relative="1" as="geometry">
            <mxPoint x="490" y="440" as="sourcePoint" />
            <mxPoint x="540" y="390" as="targetPoint" />
          </mxGeometry>
        </mxCell>
        <mxCell id="MX0C3Jx3wyEqu1No00II-20" value="" style="endArrow=none;html=1;rounded=0;entryX=0;entryY=0.5;entryDx=0;entryDy=0;exitX=1;exitY=0.5;exitDx=0;exitDy=0;" parent="1" source="MX0C3Jx3wyEqu1No00II-2" target="MX0C3Jx3wyEqu1No00II-5" edge="1">
          <mxGeometry width="50" height="50" relative="1" as="geometry">
            <mxPoint x="490" y="440" as="sourcePoint" />
            <mxPoint x="540" y="390" as="targetPoint" />
          </mxGeometry>
        </mxCell>
        <mxCell id="MX0C3Jx3wyEqu1No00II-21" value="" style="endArrow=none;html=1;rounded=0;entryX=0;entryY=0.5;entryDx=0;entryDy=0;exitX=1;exitY=0.5;exitDx=0;exitDy=0;" parent="1" source="MX0C3Jx3wyEqu1No00II-5" target="MX0C3Jx3wyEqu1No00II-4" edge="1">
          <mxGeometry width="50" height="50" relative="1" as="geometry">
            <mxPoint x="490" y="440" as="sourcePoint" />
            <mxPoint x="540" y="390" as="targetPoint" />
          </mxGeometry>
        </mxCell>
        <mxCell id="MX0C3Jx3wyEqu1No00II-22" value="" style="endArrow=none;html=1;rounded=0;entryX=1;entryY=1;entryDx=0;entryDy=0;" parent="1" source="MX0C3Jx3wyEqu1No00II-7" target="MX0C3Jx3wyEqu1No00II-2" edge="1">
          <mxGeometry width="50" height="50" relative="1" as="geometry">
            <mxPoint x="1640" y="530" as="sourcePoint" />
            <mxPoint x="680" y="330" as="targetPoint" />
            <Array as="points">
              <mxPoint x="750" y="410" />
            </Array>
          </mxGeometry>
        </mxCell>
        <mxCell id="MX0C3Jx3wyEqu1No00II-23" value="" style="endArrow=none;html=1;rounded=0;entryX=0.5;entryY=1;entryDx=0;entryDy=0;exitX=0.5;exitY=0;exitDx=0;exitDy=0;" parent="1" source="MX0C3Jx3wyEqu1No00II-8" target="MX0C3Jx3wyEqu1No00II-2" edge="1">
          <mxGeometry width="50" height="50" relative="1" as="geometry">
            <mxPoint x="490" y="440" as="sourcePoint" />
            <mxPoint x="540" y="390" as="targetPoint" />
          </mxGeometry>
        </mxCell>
        <mxCell id="MX0C3Jx3wyEqu1No00II-25" value="" style="endArrow=none;html=1;rounded=0;entryX=0.5;entryY=0;entryDx=0;entryDy=0;exitX=1;exitY=0.5;exitDx=0;exitDy=0;" parent="1" source="MX0C3Jx3wyEqu1No00II-7" target="MX0C3Jx3wyEqu1No00II-6" edge="1">
          <mxGeometry width="50" height="50" relative="1" as="geometry">
            <mxPoint x="1640" y="530" as="sourcePoint" />
            <mxPoint x="1690" y="480" as="targetPoint" />
          </mxGeometry>
        </mxCell>
        <mxCell id="MX0C3Jx3wyEqu1No00II-26" value="" style="endArrow=none;html=1;rounded=0;entryX=0.5;entryY=1;entryDx=0;entryDy=0;exitX=0.5;exitY=0;exitDx=0;exitDy=0;" parent="1" source="MX0C3Jx3wyEqu1No00II-10" target="MX0C3Jx3wyEqu1No00II-8" edge="1">
          <mxGeometry width="50" height="50" relative="1" as="geometry">
            <mxPoint x="490" y="440" as="sourcePoint" />
            <mxPoint x="540" y="390" as="targetPoint" />
          </mxGeometry>
        </mxCell>
        <mxCell id="MX0C3Jx3wyEqu1No00II-28" value="" style="endArrow=none;html=1;rounded=0;entryX=0.5;entryY=1;entryDx=0;entryDy=0;exitX=0.5;exitY=0;exitDx=0;exitDy=0;" parent="1" source="MX0C3Jx3wyEqu1No00II-12" target="MX0C3Jx3wyEqu1No00II-10" edge="1">
          <mxGeometry width="50" height="50" relative="1" as="geometry">
            <mxPoint x="490" y="720" as="sourcePoint" />
            <mxPoint x="540" y="670" as="targetPoint" />
          </mxGeometry>
        </mxCell>
        <mxCell id="MX0C3Jx3wyEqu1No00II-29" value="" style="endArrow=none;html=1;rounded=0;entryX=0.5;entryY=1;entryDx=0;entryDy=0;exitX=0.5;exitY=0;exitDx=0;exitDy=0;" parent="1" source="MX0C3Jx3wyEqu1No00II-13" target="MX0C3Jx3wyEqu1No00II-10" edge="1">
          <mxGeometry width="50" height="50" relative="1" as="geometry">
            <mxPoint x="650" y="590" as="sourcePoint" />
            <mxPoint x="540" y="670" as="targetPoint" />
          </mxGeometry>
        </mxCell>
        <mxCell id="MX0C3Jx3wyEqu1No00II-30" value="" style="endArrow=none;html=1;rounded=0;exitX=0.5;exitY=0;exitDx=0;exitDy=0;entryX=0.5;entryY=1;entryDx=0;entryDy=0;" parent="1" source="MX0C3Jx3wyEqu1No00II-15" target="MX0C3Jx3wyEqu1No00II-13" edge="1">
          <mxGeometry width="50" height="50" relative="1" as="geometry">
            <mxPoint x="490" y="720" as="sourcePoint" />
            <mxPoint x="540" y="670" as="targetPoint" />
          </mxGeometry>
        </mxCell>
        <mxCell id="MX0C3Jx3wyEqu1No00II-31" value="" style="endArrow=none;html=1;rounded=0;exitX=0.5;exitY=0;exitDx=0;exitDy=0;entryX=0.5;entryY=1;entryDx=0;entryDy=0;" parent="1" source="MX0C3Jx3wyEqu1No00II-14" target="MX0C3Jx3wyEqu1No00II-12" edge="1">
          <mxGeometry width="50" height="50" relative="1" as="geometry">
            <mxPoint x="490" y="720" as="sourcePoint" />
            <mxPoint x="540" y="670" as="targetPoint" />
          </mxGeometry>
        </mxCell>
        <mxCell id="MX0C3Jx3wyEqu1No00II-32" value="" style="endArrow=none;html=1;rounded=0;entryX=0.5;entryY=0;entryDx=0;entryDy=0;exitX=0.5;exitY=1;exitDx=0;exitDy=0;" parent="1" source="MX0C3Jx3wyEqu1No00II-15" target="MX0C3Jx3wyEqu1No00II-16" edge="1">
          <mxGeometry width="50" height="50" relative="1" as="geometry">
            <mxPoint x="490" y="720" as="sourcePoint" />
            <mxPoint x="540" y="670" as="targetPoint" />
          </mxGeometry>
        </mxCell>
        <mxCell id="MX0C3Jx3wyEqu1No00II-33" value="" style="endArrow=none;html=1;rounded=0;entryX=0;entryY=0.5;entryDx=0;entryDy=0;exitX=1;exitY=0.5;exitDx=0;exitDy=0;" parent="1" source="MX0C3Jx3wyEqu1No00II-17" target="MX0C3Jx3wyEqu1No00II-16" edge="1">
          <mxGeometry width="50" height="50" relative="1" as="geometry">
            <mxPoint x="490" y="720" as="sourcePoint" />
            <mxPoint x="730" y="890" as="targetPoint" />
          </mxGeometry>
        </mxCell>
        <mxCell id="MX0C3Jx3wyEqu1No00II-34" value="1" style="text;html=1;align=center;verticalAlign=middle;whiteSpace=wrap;rounded=0;" parent="1" vertex="1">
          <mxGeometry x="250" y="220" width="60" height="30" as="geometry" />
        </mxCell>
        <mxCell id="MX0C3Jx3wyEqu1No00II-35" value="1" style="text;html=1;align=center;verticalAlign=middle;whiteSpace=wrap;rounded=0;" parent="1" vertex="1">
          <mxGeometry x="440" y="220" width="60" height="30" as="geometry" />
        </mxCell>
        <mxCell id="MX0C3Jx3wyEqu1No00II-36" value="1" style="text;html=1;align=center;verticalAlign=middle;whiteSpace=wrap;rounded=0;" parent="1" vertex="1">
          <mxGeometry x="620" y="220" width="60" height="30" as="geometry" />
        </mxCell>
        <mxCell id="MX0C3Jx3wyEqu1No00II-37" value="0..N" style="text;html=1;align=center;verticalAlign=middle;whiteSpace=wrap;rounded=0;" parent="1" vertex="1">
          <mxGeometry x="840" y="220" width="60" height="30" as="geometry" />
        </mxCell>
        <mxCell id="MX0C3Jx3wyEqu1No00II-38" value="1" style="text;html=1;align=center;verticalAlign=middle;whiteSpace=wrap;rounded=0;" parent="1" vertex="1">
          <mxGeometry x="620" y="270" width="60" height="30" as="geometry" />
        </mxCell>
        <mxCell id="MX0C3Jx3wyEqu1No00II-39" value="0..2" style="text;html=1;align=center;verticalAlign=middle;whiteSpace=wrap;rounded=0;" parent="1" vertex="1">
          <mxGeometry x="1330" y="540" width="60" height="30" as="geometry" />
        </mxCell>
        <mxCell id="MX0C3Jx3wyEqu1No00II-40" value="2" style="text;html=1;align=center;verticalAlign=middle;whiteSpace=wrap;rounded=0;" parent="1" vertex="1">
          <mxGeometry x="550" y="290" width="60" height="30" as="geometry" />
        </mxCell>
        <mxCell id="MX0C3Jx3wyEqu1No00II-41" value="0..N" style="text;html=1;align=center;verticalAlign=middle;whiteSpace=wrap;rounded=0;" parent="1" vertex="1">
          <mxGeometry x="500" y="450" width="60" height="30" as="geometry" />
        </mxCell>
        <mxCell id="MX0C3Jx3wyEqu1No00II-42" value="1" style="text;html=1;align=center;verticalAlign=middle;whiteSpace=wrap;rounded=0;" parent="1" vertex="1">
          <mxGeometry x="907" y="495" width="60" height="30" as="geometry" />
        </mxCell>
        <mxCell id="MX0C3Jx3wyEqu1No00II-44" value="0..N" style="text;html=1;align=center;verticalAlign=middle;whiteSpace=wrap;rounded=0;" parent="1" vertex="1">
          <mxGeometry x="450" y="540" width="60" height="30" as="geometry" />
        </mxCell>
        <mxCell id="MX0C3Jx3wyEqu1No00II-45" value="2" style="text;html=1;align=center;verticalAlign=middle;whiteSpace=wrap;rounded=0;" parent="1" vertex="1">
          <mxGeometry x="290" y="690" width="60" height="30" as="geometry" />
        </mxCell>
        <mxCell id="MX0C3Jx3wyEqu1No00II-46" value="1" style="text;html=1;align=center;verticalAlign=middle;whiteSpace=wrap;rounded=0;" parent="1" vertex="1">
          <mxGeometry x="590" y="540" width="60" height="30" as="geometry" />
        </mxCell>
        <mxCell id="MX0C3Jx3wyEqu1No00II-47" value="1" style="text;html=1;align=center;verticalAlign=middle;whiteSpace=wrap;rounded=0;" parent="1" vertex="1">
          <mxGeometry x="760" y="690" width="60" height="30" as="geometry" />
        </mxCell>
        <mxCell id="MX0C3Jx3wyEqu1No00II-48" value="1" style="text;html=1;align=center;verticalAlign=middle;whiteSpace=wrap;rounded=0;" parent="1" vertex="1">
          <mxGeometry x="760" y="780" width="60" height="30" as="geometry" />
        </mxCell>
        <mxCell id="MX0C3Jx3wyEqu1No00II-49" value="1" style="text;html=1;align=center;verticalAlign=middle;whiteSpace=wrap;rounded=0;" parent="1" vertex="1">
          <mxGeometry x="620" y="870" width="60" height="30" as="geometry" />
        </mxCell>
        <mxCell id="MX0C3Jx3wyEqu1No00II-50" value="Reviews" style="rounded=0;whiteSpace=wrap;html=1;" parent="1" vertex="1">
          <mxGeometry x="500" width="120" height="60" as="geometry" />
        </mxCell>
        <mxCell id="MX0C3Jx3wyEqu1No00II-51" value="" style="endArrow=none;html=1;rounded=0;entryX=0.5;entryY=1;entryDx=0;entryDy=0;" parent="1" source="MX0C3Jx3wyEqu1No00II-52" target="MX0C3Jx3wyEqu1No00II-50" edge="1">
          <mxGeometry width="50" height="50" relative="1" as="geometry">
            <mxPoint x="560" y="140" as="sourcePoint" />
            <mxPoint x="440" y="220" as="targetPoint" />
          </mxGeometry>
        </mxCell>
        <mxCell id="MX0C3Jx3wyEqu1No00II-54" value="" style="endArrow=none;html=1;rounded=0;entryX=0.5;entryY=1;entryDx=0;entryDy=0;" parent="1" target="MX0C3Jx3wyEqu1No00II-52" edge="1">
          <mxGeometry width="50" height="50" relative="1" as="geometry">
            <mxPoint x="560" y="140" as="sourcePoint" />
            <mxPoint x="560" y="60" as="targetPoint" />
          </mxGeometry>
        </mxCell>
        <mxCell id="MX0C3Jx3wyEqu1No00II-52" value="has" style="rhombus;whiteSpace=wrap;html=1;" parent="1" vertex="1">
          <mxGeometry x="520" y="100" width="80" height="80" as="geometry" />
        </mxCell>
        <mxCell id="MX0C3Jx3wyEqu1No00II-55" value="" style="endArrow=none;html=1;rounded=0;entryX=0.5;entryY=1;entryDx=0;entryDy=0;exitX=0.5;exitY=0;exitDx=0;exitDy=0;" parent="1" source="MX0C3Jx3wyEqu1No00II-2" target="MX0C3Jx3wyEqu1No00II-52" edge="1">
          <mxGeometry width="50" height="50" relative="1" as="geometry">
            <mxPoint x="390" y="270" as="sourcePoint" />
            <mxPoint x="440" y="220" as="targetPoint" />
          </mxGeometry>
        </mxCell>
        <mxCell id="MX0C3Jx3wyEqu1No00II-56" value="1" style="text;html=1;align=center;verticalAlign=middle;whiteSpace=wrap;rounded=0;" parent="1" vertex="1">
          <mxGeometry x="540" y="190" width="60" height="30" as="geometry" />
        </mxCell>
        <mxCell id="MX0C3Jx3wyEqu1No00II-57" value="0..N" style="text;html=1;align=center;verticalAlign=middle;whiteSpace=wrap;rounded=0;" parent="1" vertex="1">
          <mxGeometry x="560" y="60" width="60" height="30" as="geometry" />
        </mxCell>
        <mxCell id="MX0C3Jx3wyEqu1No00II-58" value="" style="endArrow=none;html=1;rounded=0;exitX=0;exitY=0.5;exitDx=0;exitDy=0;entryX=1;entryY=0;entryDx=0;entryDy=0;" parent="1" source="MX0C3Jx3wyEqu1No00II-1" target="MX0C3Jx3wyEqu1No00II-65" edge="1">
          <mxGeometry width="50" height="50" relative="1" as="geometry">
            <mxPoint x="85" y="325" as="sourcePoint" />
            <mxPoint x="130" y="280" as="targetPoint" />
          </mxGeometry>
        </mxCell>
        <mxCell id="MX0C3Jx3wyEqu1No00II-61" value="idRole" style="text;html=1;align=center;verticalAlign=middle;whiteSpace=wrap;rounded=0;" parent="1" vertex="1">
          <mxGeometry x="30" y="190" width="60" height="30" as="geometry" />
        </mxCell>
        <mxCell id="MX0C3Jx3wyEqu1No00II-62" value="password" style="text;html=1;align=center;verticalAlign=middle;whiteSpace=wrap;rounded=0;" parent="1" vertex="1">
          <mxGeometry x="-30" y="235" width="60" height="30" as="geometry" />
        </mxCell>
        <mxCell id="MX0C3Jx3wyEqu1No00II-63" value="email" style="text;html=1;align=center;verticalAlign=middle;whiteSpace=wrap;rounded=0;rotation=0;" parent="1" vertex="1">
          <mxGeometry x="30" y="280" width="60" height="30" as="geometry" />
        </mxCell>
        <mxCell id="MX0C3Jx3wyEqu1No00II-64" value="idStatus" style="text;html=1;align=center;verticalAlign=middle;whiteSpace=wrap;rounded=0;" parent="1" vertex="1">
          <mxGeometry x="80" y="150" width="60" height="30" as="geometry" />
        </mxCell>
        <mxCell id="MX0C3Jx3wyEqu1No00II-65" value="" style="ellipse;whiteSpace=wrap;html=1;aspect=fixed;" parent="1" vertex="1">
          <mxGeometry x="80" y="280" width="10" height="10" as="geometry" />
        </mxCell>
        <mxCell id="MX0C3Jx3wyEqu1No00II-74" value="" style="endArrow=none;html=1;rounded=0;exitX=0;exitY=0.5;exitDx=0;exitDy=0;" parent="1" source="MX0C3Jx3wyEqu1No00II-200" edge="1">
          <mxGeometry width="50" height="50" relative="1" as="geometry">
            <mxPoint x="390" y="210" as="sourcePoint" />
            <mxPoint x="80" y="250" as="targetPoint" />
          </mxGeometry>
        </mxCell>
        <mxCell id="MX0C3Jx3wyEqu1No00II-75" value="" style="endArrow=none;html=1;rounded=0;exitX=0;exitY=0.5;exitDx=0;exitDy=0;" parent="1" source="MX0C3Jx3wyEqu1No00II-199" edge="1">
          <mxGeometry width="50" height="50" relative="1" as="geometry">
            <mxPoint x="130" y="250" as="sourcePoint" />
            <mxPoint x="100" y="210" as="targetPoint" />
          </mxGeometry>
        </mxCell>
        <mxCell id="MX0C3Jx3wyEqu1No00II-76" value="" style="endArrow=none;html=1;rounded=0;exitX=0;exitY=0.5;exitDx=0;exitDy=0;" parent="1" source="MX0C3Jx3wyEqu1No00II-1" edge="1">
          <mxGeometry width="50" height="50" relative="1" as="geometry">
            <mxPoint x="390" y="210" as="sourcePoint" />
            <mxPoint x="122.30769230769238" y="200" as="targetPoint" />
          </mxGeometry>
        </mxCell>
        <mxCell id="MX0C3Jx3wyEqu1No00II-78" value="idUser" style="text;html=1;align=center;verticalAlign=middle;whiteSpace=wrap;rounded=0;" parent="1" vertex="1">
          <mxGeometry x="720" y="150" width="60" height="30" as="geometry" />
        </mxCell>
        <mxCell id="MX0C3Jx3wyEqu1No00II-79" value="idAccount" style="text;html=1;align=center;verticalAlign=middle;whiteSpace=wrap;rounded=0;" parent="1" vertex="1">
          <mxGeometry x="354" y="160" width="60" height="30" as="geometry" />
        </mxCell>
        <mxCell id="MX0C3Jx3wyEqu1No00II-80" value="firstName" style="text;html=1;align=center;verticalAlign=middle;whiteSpace=wrap;rounded=0;" parent="1" vertex="1">
          <mxGeometry x="710" y="50" width="60" height="30" as="geometry" />
        </mxCell>
        <mxCell id="MX0C3Jx3wyEqu1No00II-81" value="lastName" style="text;html=1;align=center;verticalAlign=middle;whiteSpace=wrap;rounded=0;" parent="1" vertex="1">
          <mxGeometry x="350" y="60" width="60" height="30" as="geometry" />
        </mxCell>
        <mxCell id="MX0C3Jx3wyEqu1No00II-82" value="birthDate" style="text;html=1;align=center;verticalAlign=middle;whiteSpace=wrap;rounded=0;" parent="1" vertex="1">
          <mxGeometry x="350" y="120" width="60" height="30" as="geometry" />
        </mxCell>
        <mxCell id="MX0C3Jx3wyEqu1No00II-83" value="profilePicture" style="text;html=1;align=center;verticalAlign=middle;whiteSpace=wrap;rounded=0;" parent="1" vertex="1">
          <mxGeometry x="720" y="110" width="60" height="30" as="geometry" />
        </mxCell>
        <mxCell id="MX0C3Jx3wyEqu1No00II-84" value="idUser" style="text;html=1;align=center;verticalAlign=middle;whiteSpace=wrap;rounded=0;" parent="1" vertex="1">
          <mxGeometry x="460" y="-80" width="60" height="30" as="geometry" />
        </mxCell>
        <mxCell id="MX0C3Jx3wyEqu1No00II-85" value="rating" style="text;html=1;align=center;verticalAlign=middle;whiteSpace=wrap;rounded=0;" parent="1" vertex="1">
          <mxGeometry x="540" y="-70" width="60" height="30" as="geometry" />
        </mxCell>
        <mxCell id="MX0C3Jx3wyEqu1No00II-86" value="notes" style="text;html=1;align=center;verticalAlign=middle;whiteSpace=wrap;rounded=0;" parent="1" vertex="1">
          <mxGeometry x="630" y="-60" width="60" height="30" as="geometry" />
        </mxCell>
        <mxCell id="MX0C3Jx3wyEqu1No00II-87" value="idUser" style="text;html=1;align=center;verticalAlign=middle;whiteSpace=wrap;rounded=0;" parent="1" vertex="1">
          <mxGeometry x="850" y="140" width="60" height="30" as="geometry" />
        </mxCell>
        <mxCell id="MX0C3Jx3wyEqu1No00II-88" value="idInsurance" style="text;html=1;align=center;verticalAlign=middle;whiteSpace=wrap;rounded=0;" parent="1" vertex="1">
          <mxGeometry x="940" y="140" width="60" height="30" as="geometry" />
        </mxCell>
        <mxCell id="MX0C3Jx3wyEqu1No00II-91" value="idGearShift" style="text;html=1;align=center;verticalAlign=middle;whiteSpace=wrap;rounded=0;" parent="1" vertex="1">
          <mxGeometry x="1100" y="190" width="60" height="30" as="geometry" />
        </mxCell>
        <mxCell id="MX0C3Jx3wyEqu1No00II-92" value="brand" style="text;html=1;align=center;verticalAlign=middle;whiteSpace=wrap;rounded=0;" parent="1" vertex="1">
          <mxGeometry x="1090" y="240" width="60" height="30" as="geometry" />
        </mxCell>
        <mxCell id="MX0C3Jx3wyEqu1No00II-93" value="model" style="text;html=1;align=center;verticalAlign=middle;whiteSpace=wrap;rounded=0;" parent="1" vertex="1">
          <mxGeometry x="1070" y="270" width="60" height="30" as="geometry" />
        </mxCell>
        <mxCell id="MX0C3Jx3wyEqu1No00II-95" value="idReservation" style="text;html=1;align=center;verticalAlign=middle;whiteSpace=wrap;rounded=0;" parent="1" vertex="1">
          <mxGeometry x="410" y="430" width="60" height="30" as="geometry" />
        </mxCell>
        <mxCell id="MX0C3Jx3wyEqu1No00II-96" value="reservationTime" style="text;html=1;align=center;verticalAlign=middle;whiteSpace=wrap;rounded=0;" parent="1" vertex="1">
          <mxGeometry x="380" y="460" width="60" height="30" as="geometry" />
        </mxCell>
        <mxCell id="MX0C3Jx3wyEqu1No00II-97" value="idStatus" style="text;html=1;align=center;verticalAlign=middle;whiteSpace=wrap;rounded=0;" parent="1" vertex="1">
          <mxGeometry x="384" y="530" width="60" height="30" as="geometry" />
        </mxCell>
        <mxCell id="MX0C3Jx3wyEqu1No00II-98" value="idDeparture" style="text;html=1;align=center;verticalAlign=middle;whiteSpace=wrap;rounded=0;" parent="1" vertex="1">
          <mxGeometry x="620" y="430" width="60" height="30" as="geometry" />
        </mxCell>
        <mxCell id="MX0C3Jx3wyEqu1No00II-99" value="idDestination" style="text;html=1;align=center;verticalAlign=middle;whiteSpace=wrap;rounded=0;" parent="1" vertex="1">
          <mxGeometry x="650" y="470" width="60" height="30" as="geometry" />
        </mxCell>
        <mxCell id="MX0C3Jx3wyEqu1No00II-100" value="idDriver" style="text;html=1;align=center;verticalAlign=middle;whiteSpace=wrap;rounded=0;" parent="1" vertex="1">
          <mxGeometry x="650" y="520" width="60" height="30" as="geometry" />
        </mxCell>
        <mxCell id="MX0C3Jx3wyEqu1No00II-106" value="idReview" style="text;html=1;align=center;verticalAlign=middle;whiteSpace=wrap;rounded=0;" parent="1" vertex="1">
          <mxGeometry x="390" y="-50" width="60" height="30" as="geometry" />
        </mxCell>
        <mxCell id="MX0C3Jx3wyEqu1No00II-107" value="idDocument" style="text;html=1;align=center;verticalAlign=middle;whiteSpace=wrap;rounded=0;" parent="1" vertex="1">
          <mxGeometry x="1200" y="510" width="60" height="30" as="geometry" />
        </mxCell>
        <mxCell id="MX0C3Jx3wyEqu1No00II-108" value="isValid" style="text;html=1;align=center;verticalAlign=middle;whiteSpace=wrap;rounded=0;" parent="1" vertex="1">
          <mxGeometry x="1200" y="560" width="60" height="30" as="geometry" />
        </mxCell>
        <mxCell id="MX0C3Jx3wyEqu1No00II-109" value="expiryDate" style="text;html=1;align=center;verticalAlign=middle;whiteSpace=wrap;rounded=0;" parent="1" vertex="1">
          <mxGeometry x="1205" y="610" width="60" height="30" as="geometry" />
        </mxCell>
        <mxCell id="MX0C3Jx3wyEqu1No00II-110" value="photo" style="text;html=1;align=center;verticalAlign=middle;whiteSpace=wrap;rounded=0;" parent="1" vertex="1">
          <mxGeometry x="1220" y="680" width="60" height="30" as="geometry" />
        </mxCell>
        <mxCell id="MX0C3Jx3wyEqu1No00II-111" value="idUser" style="text;html=1;align=center;verticalAlign=middle;whiteSpace=wrap;rounded=0;" parent="1" vertex="1">
          <mxGeometry x="1350" y="670" width="60" height="30" as="geometry" />
        </mxCell>
        <mxCell id="MX0C3Jx3wyEqu1No00II-112" value="idPosition" style="text;html=1;align=center;verticalAlign=middle;whiteSpace=wrap;rounded=0;" parent="1" vertex="1">
          <mxGeometry x="160" y="680" width="60" height="30" as="geometry" />
        </mxCell>
        <mxCell id="MX0C3Jx3wyEqu1No00II-113" value="latitude" style="text;html=1;align=center;verticalAlign=middle;whiteSpace=wrap;rounded=0;" parent="1" vertex="1">
          <mxGeometry x="160" y="750" width="60" height="30" as="geometry" />
        </mxCell>
        <mxCell id="MX0C3Jx3wyEqu1No00II-114" value="longitude" style="text;html=1;align=center;verticalAlign=middle;whiteSpace=wrap;rounded=0;" parent="1" vertex="1">
          <mxGeometry x="220" y="810" width="60" height="30" as="geometry" />
        </mxCell>
        <mxCell id="MX0C3Jx3wyEqu1No00II-115" value="idPayment" style="text;html=1;align=center;verticalAlign=middle;whiteSpace=wrap;rounded=0;" parent="1" vertex="1">
          <mxGeometry x="465" y="790" width="60" height="30" as="geometry" />
        </mxCell>
        <mxCell id="MX0C3Jx3wyEqu1No00II-118" value="amount" style="text;html=1;align=center;verticalAlign=middle;whiteSpace=wrap;rounded=0;" parent="1" vertex="1">
          <mxGeometry x="520" y="980" width="60" height="30" as="geometry" />
        </mxCell>
        <mxCell id="MX0C3Jx3wyEqu1No00II-119" value="" style="shape=image;html=1;verticalAlign=top;verticalLabelPosition=bottom;labelBackgroundColor=#ffffff;imageAspect=0;aspect=fixed;image=https://cdn4.iconfinder.com/data/icons/essential-app-2/16/record-round-circle-dot-128.png" parent="1" vertex="1">
          <mxGeometry x="1270" y="530" width="10" height="10" as="geometry" />
        </mxCell>
        <mxCell id="MX0C3Jx3wyEqu1No00II-120" value="" style="shape=image;html=1;verticalAlign=top;verticalLabelPosition=bottom;labelBackgroundColor=#ffffff;imageAspect=0;aspect=fixed;image=https://cdn4.iconfinder.com/data/icons/essential-app-2/16/record-round-circle-dot-128.png" parent="1" vertex="1">
          <mxGeometry x="225" y="700" width="10" height="10" as="geometry" />
        </mxCell>
        <mxCell id="MX0C3Jx3wyEqu1No00II-121" value="" style="shape=image;html=1;verticalAlign=top;verticalLabelPosition=bottom;labelBackgroundColor=#ffffff;imageAspect=0;aspect=fixed;image=https://cdn4.iconfinder.com/data/icons/essential-app-2/16/record-round-circle-dot-128.png" parent="1" vertex="1">
          <mxGeometry x="490" y="820" width="10" height="10" as="geometry" />
        </mxCell>
        <mxCell id="MX0C3Jx3wyEqu1No00II-123" value="" style="shape=image;html=1;verticalAlign=top;verticalLabelPosition=bottom;labelBackgroundColor=#ffffff;imageAspect=0;aspect=fixed;image=https://cdn4.iconfinder.com/data/icons/essential-app-2/16/record-round-circle-dot-128.png" parent="1" vertex="1">
          <mxGeometry x="670" y="745" width="10" height="10" as="geometry" />
        </mxCell>
        <mxCell id="MX0C3Jx3wyEqu1No00II-124" value="idRide" style="text;html=1;align=center;verticalAlign=middle;whiteSpace=wrap;rounded=0;" parent="1" vertex="1">
          <mxGeometry x="610" y="735" width="60" height="30" as="geometry" />
        </mxCell>
        <mxCell id="MX0C3Jx3wyEqu1No00II-125" value="idReservation" style="text;html=1;align=center;verticalAlign=middle;whiteSpace=wrap;rounded=0;" parent="1" vertex="1">
          <mxGeometry x="880" y="670" width="60" height="30" as="geometry" />
        </mxCell>
        <mxCell id="MX0C3Jx3wyEqu1No00II-126" value="idStatus&lt;div&gt;&lt;br&gt;&lt;/div&gt;" style="text;html=1;align=center;verticalAlign=middle;whiteSpace=wrap;rounded=0;" parent="1" vertex="1">
          <mxGeometry x="900" y="720" width="60" height="30" as="geometry" />
        </mxCell>
        <mxCell id="MX0C3Jx3wyEqu1No00II-127" value="timeDeparture" style="text;html=1;align=center;verticalAlign=middle;whiteSpace=wrap;rounded=0;" parent="1" vertex="1">
          <mxGeometry x="900" y="760" width="60" height="30" as="geometry" />
        </mxCell>
        <mxCell id="MX0C3Jx3wyEqu1No00II-128" value="timeArrival" style="text;html=1;align=center;verticalAlign=middle;whiteSpace=wrap;rounded=0;" parent="1" vertex="1">
          <mxGeometry x="900" y="800" width="60" height="30" as="geometry" />
        </mxCell>
        <mxCell id="MX0C3Jx3wyEqu1No00II-130" value="" style="shape=image;html=1;verticalAlign=top;verticalLabelPosition=bottom;labelBackgroundColor=#ffffff;imageAspect=0;aspect=fixed;image=https://cdn4.iconfinder.com/data/icons/essential-app-2/16/record-round-circle-dot-128.png" parent="1" vertex="1">
          <mxGeometry x="480" y="450" width="10" height="10" as="geometry" />
        </mxCell>
        <mxCell id="MX0C3Jx3wyEqu1No00II-132" value="" style="shape=image;html=1;verticalAlign=top;verticalLabelPosition=bottom;labelBackgroundColor=#ffffff;imageAspect=0;aspect=fixed;image=https://cdn4.iconfinder.com/data/icons/essential-app-2/16/record-round-circle-dot-128.png" parent="1" vertex="1">
          <mxGeometry x="444" y="-30" width="10" height="10" as="geometry" />
        </mxCell>
        <mxCell id="MX0C3Jx3wyEqu1No00II-133" value="" style="shape=image;html=1;verticalAlign=top;verticalLabelPosition=bottom;labelBackgroundColor=#ffffff;imageAspect=0;aspect=fixed;image=https://cdn4.iconfinder.com/data/icons/essential-app-2/16/record-round-circle-dot-128.png" parent="1" vertex="1">
          <mxGeometry x="870" y="320" width="10" height="10" as="geometry" />
        </mxCell>
        <mxCell id="MX0C3Jx3wyEqu1No00II-134" value="plate" style="text;html=1;align=center;verticalAlign=middle;whiteSpace=wrap;rounded=0;" parent="1" vertex="1">
          <mxGeometry x="827" y="320" width="60" height="30" as="geometry" />
        </mxCell>
        <mxCell id="MX0C3Jx3wyEqu1No00II-135" value="idAccount" style="text;html=1;align=center;verticalAlign=middle;whiteSpace=wrap;rounded=0;" parent="1" vertex="1">
          <mxGeometry x="90" y="330" width="60" height="30" as="geometry" />
        </mxCell>
        <mxCell id="MX0C3Jx3wyEqu1No00II-136" value="" style="shape=image;html=1;verticalAlign=top;verticalLabelPosition=bottom;labelBackgroundColor=#ffffff;imageAspect=0;aspect=fixed;image=https://cdn4.iconfinder.com/data/icons/essential-app-2/16/record-round-circle-dot-128.png" parent="1" vertex="1">
          <mxGeometry x="710" y="170" width="10" height="10" as="geometry" />
        </mxCell>
        <mxCell id="MX0C3Jx3wyEqu1No00II-138" value="" style="shape=image;html=1;verticalAlign=top;verticalLabelPosition=bottom;labelBackgroundColor=#ffffff;imageAspect=0;aspect=fixed;image=https://cdn4.iconfinder.com/data/icons/essential-app-2/16/record-round-circle-dot-128.png" parent="1" vertex="1">
          <mxGeometry x="120" y="320" width="10" height="10" as="geometry" />
        </mxCell>
        <mxCell id="MX0C3Jx3wyEqu1No00II-143" value="" style="endArrow=none;html=1;rounded=0;entryX=0.5;entryY=0;entryDx=0;entryDy=0;" parent="1" target="MX0C3Jx3wyEqu1No00II-138" edge="1">
          <mxGeometry width="50" height="50" relative="1" as="geometry">
            <mxPoint x="130" y="250" as="sourcePoint" />
            <mxPoint x="210" y="110" as="targetPoint" />
          </mxGeometry>
        </mxCell>
        <mxCell id="MX0C3Jx3wyEqu1No00II-144" value="" style="endArrow=none;html=1;rounded=0;entryX=1;entryY=0.75;entryDx=0;entryDy=0;exitX=0;exitY=0.5;exitDx=0;exitDy=0;" parent="1" source="MX0C3Jx3wyEqu1No00II-50" target="MX0C3Jx3wyEqu1No00II-132" edge="1">
          <mxGeometry width="50" height="50" relative="1" as="geometry">
            <mxPoint x="160" y="160" as="sourcePoint" />
            <mxPoint x="210" y="110" as="targetPoint" />
          </mxGeometry>
        </mxCell>
        <mxCell id="MX0C3Jx3wyEqu1No00II-145" value="" style="endArrow=none;html=1;rounded=0;entryX=0;entryY=0.5;entryDx=0;entryDy=0;exitX=0.75;exitY=0;exitDx=0;exitDy=0;" parent="1" source="MX0C3Jx3wyEqu1No00II-2" target="MX0C3Jx3wyEqu1No00II-136" edge="1">
          <mxGeometry width="50" height="50" relative="1" as="geometry">
            <mxPoint x="580" y="160" as="sourcePoint" />
            <mxPoint x="630" y="110" as="targetPoint" />
          </mxGeometry>
        </mxCell>
        <mxCell id="MX0C3Jx3wyEqu1No00II-146" value="" style="endArrow=none;html=1;rounded=0;entryX=0.5;entryY=0;entryDx=0;entryDy=0;exitX=0.5;exitY=1;exitDx=0;exitDy=0;" parent="1" source="MX0C3Jx3wyEqu1No00II-4" target="MX0C3Jx3wyEqu1No00II-133" edge="1">
          <mxGeometry width="50" height="50" relative="1" as="geometry">
            <mxPoint x="820" y="160" as="sourcePoint" />
            <mxPoint x="870" y="110" as="targetPoint" />
          </mxGeometry>
        </mxCell>
        <mxCell id="MX0C3Jx3wyEqu1No00II-148" value="" style="endArrow=none;html=1;rounded=0;entryX=1;entryY=0.25;entryDx=0;entryDy=0;exitX=0;exitY=0.5;exitDx=0;exitDy=0;" parent="1" source="MX0C3Jx3wyEqu1No00II-15" target="MX0C3Jx3wyEqu1No00II-123" edge="1">
          <mxGeometry width="50" height="50" relative="1" as="geometry">
            <mxPoint x="770" y="745" as="sourcePoint" />
            <mxPoint x="920" y="645" as="targetPoint" />
          </mxGeometry>
        </mxCell>
        <mxCell id="MX0C3Jx3wyEqu1No00II-149" value="" style="endArrow=none;html=1;rounded=0;entryX=1;entryY=0.75;entryDx=0;entryDy=0;exitX=0;exitY=0;exitDx=0;exitDy=0;" parent="1" source="MX0C3Jx3wyEqu1No00II-17" target="MX0C3Jx3wyEqu1No00II-121" edge="1">
          <mxGeometry width="50" height="50" relative="1" as="geometry">
            <mxPoint x="820" y="890" as="sourcePoint" />
            <mxPoint x="870" y="840" as="targetPoint" />
          </mxGeometry>
        </mxCell>
        <mxCell id="MX0C3Jx3wyEqu1No00II-150" value="" style="endArrow=none;html=1;rounded=0;entryX=1;entryY=0.75;entryDx=0;entryDy=0;exitX=0;exitY=0.5;exitDx=0;exitDy=0;" parent="1" source="MX0C3Jx3wyEqu1No00II-14" target="MX0C3Jx3wyEqu1No00II-120" edge="1">
          <mxGeometry width="50" height="50" relative="1" as="geometry">
            <mxPoint x="390" y="790" as="sourcePoint" />
            <mxPoint x="440" y="740" as="targetPoint" />
          </mxGeometry>
        </mxCell>
        <mxCell id="MX0C3Jx3wyEqu1No00II-151" value="" style="endArrow=none;html=1;rounded=0;entryX=1;entryY=1;entryDx=0;entryDy=0;exitX=0;exitY=0;exitDx=0;exitDy=0;" parent="1" source="MX0C3Jx3wyEqu1No00II-6" target="MX0C3Jx3wyEqu1No00II-119" edge="1">
          <mxGeometry width="50" height="50" relative="1" as="geometry">
            <mxPoint x="1540" y="520" as="sourcePoint" />
            <mxPoint x="1590" y="470" as="targetPoint" />
          </mxGeometry>
        </mxCell>
        <mxCell id="MX0C3Jx3wyEqu1No00II-152" value="" style="endArrow=none;html=1;rounded=0;entryX=0;entryY=1;entryDx=0;entryDy=0;exitX=0.5;exitY=1;exitDx=0;exitDy=0;" parent="1" source="MX0C3Jx3wyEqu1No00II-130" target="MX0C3Jx3wyEqu1No00II-41" edge="1">
          <mxGeometry width="50" height="50" relative="1" as="geometry">
            <mxPoint x="390" y="430" as="sourcePoint" />
            <mxPoint x="440" y="380" as="targetPoint" />
          </mxGeometry>
        </mxCell>
        <mxCell id="MX0C3Jx3wyEqu1No00II-153" value="" style="endArrow=none;html=1;rounded=0;" parent="1" source="MX0C3Jx3wyEqu1No00II-154" edge="1">
          <mxGeometry width="50" height="50" relative="1" as="geometry">
            <mxPoint x="560" y="960" as="sourcePoint" />
            <mxPoint x="560" y="930" as="targetPoint" />
            <Array as="points" />
          </mxGeometry>
        </mxCell>
        <mxCell id="MX0C3Jx3wyEqu1No00II-155" value="" style="endArrow=none;html=1;rounded=0;" parent="1" target="MX0C3Jx3wyEqu1No00II-154" edge="1">
          <mxGeometry width="50" height="50" relative="1" as="geometry">
            <mxPoint x="560" y="960" as="sourcePoint" />
            <mxPoint x="560" y="930" as="targetPoint" />
            <Array as="points" />
          </mxGeometry>
        </mxCell>
        <mxCell id="MX0C3Jx3wyEqu1No00II-154" value="" style="ellipse;whiteSpace=wrap;html=1;aspect=fixed;" parent="1" vertex="1">
          <mxGeometry x="555" y="960" width="10" height="10" as="geometry" />
        </mxCell>
        <mxCell id="MX0C3Jx3wyEqu1No00II-159" value="" style="endArrow=none;html=1;rounded=0;" parent="1" edge="1">
          <mxGeometry width="50" height="50" relative="1" as="geometry">
            <mxPoint x="840" y="720" as="sourcePoint" />
            <mxPoint x="860" y="700" as="targetPoint" />
          </mxGeometry>
        </mxCell>
        <mxCell id="MX0C3Jx3wyEqu1No00II-164" value="" style="endArrow=none;html=1;rounded=0;" parent="1" edge="1">
          <mxGeometry width="50" height="50" relative="1" as="geometry">
            <mxPoint x="840" y="750" as="sourcePoint" />
            <mxPoint x="890" y="740" as="targetPoint" />
          </mxGeometry>
        </mxCell>
        <mxCell id="MX0C3Jx3wyEqu1No00II-166" value="" style="endArrow=none;html=1;rounded=0;" parent="1" edge="1">
          <mxGeometry width="50" height="50" relative="1" as="geometry">
            <mxPoint x="840" y="780" as="sourcePoint" />
            <mxPoint x="880" y="780" as="targetPoint" />
          </mxGeometry>
        </mxCell>
        <mxCell id="MX0C3Jx3wyEqu1No00II-168" value="" style="endArrow=none;html=1;rounded=0;exitX=0.25;exitY=0;exitDx=0;exitDy=0;" parent="1" source="MX0C3Jx3wyEqu1No00II-128" edge="1">
          <mxGeometry width="50" height="50" relative="1" as="geometry">
            <mxPoint x="790" y="830" as="sourcePoint" />
            <mxPoint x="840" y="780" as="targetPoint" />
          </mxGeometry>
        </mxCell>
        <mxCell id="MX0C3Jx3wyEqu1No00II-169" value="" style="endArrow=none;html=1;rounded=0;exitX=1;exitY=0.5;exitDx=0;exitDy=0;" parent="1" source="MX0C3Jx3wyEqu1No00II-108" edge="1">
          <mxGeometry width="50" height="50" relative="1" as="geometry">
            <mxPoint x="1260" y="630" as="sourcePoint" />
            <mxPoint x="1310" y="580" as="targetPoint" />
          </mxGeometry>
        </mxCell>
        <mxCell id="MX0C3Jx3wyEqu1No00II-170" value="" style="endArrow=none;html=1;rounded=0;" parent="1" edge="1">
          <mxGeometry width="50" height="50" relative="1" as="geometry">
            <mxPoint x="1375" y="670" as="sourcePoint" />
            <mxPoint x="1375" y="630" as="targetPoint" />
          </mxGeometry>
        </mxCell>
        <mxCell id="MX0C3Jx3wyEqu1No00II-171" value="" style="endArrow=none;html=1;rounded=0;entryX=0;entryY=0.75;entryDx=0;entryDy=0;exitX=1;exitY=0.5;exitDx=0;exitDy=0;" parent="1" source="MX0C3Jx3wyEqu1No00II-109" edge="1">
          <mxGeometry width="50" height="50" relative="1" as="geometry">
            <mxPoint x="1216" y="717.5" as="sourcePoint" />
            <mxPoint x="1310" y="620" as="targetPoint" />
          </mxGeometry>
        </mxCell>
        <mxCell id="MX0C3Jx3wyEqu1No00II-172" value="" style="endArrow=none;html=1;rounded=0;entryX=0.127;entryY=0.981;entryDx=0;entryDy=0;entryPerimeter=0;exitX=1;exitY=0;exitDx=0;exitDy=0;" parent="1" source="MX0C3Jx3wyEqu1No00II-110" target="MX0C3Jx3wyEqu1No00II-6" edge="1">
          <mxGeometry width="50" height="50" relative="1" as="geometry">
            <mxPoint x="1410" y="753.75" as="sourcePoint" />
            <mxPoint x="1504" y="656.25" as="targetPoint" />
          </mxGeometry>
        </mxCell>
        <mxCell id="MX0C3Jx3wyEqu1No00II-173" value="" style="endArrow=none;html=1;rounded=0;entryX=0;entryY=0.75;entryDx=0;entryDy=0;exitX=1;exitY=0.5;exitDx=0;exitDy=0;" parent="1" source="MX0C3Jx3wyEqu1No00II-113" edge="1">
          <mxGeometry width="50" height="50" relative="1" as="geometry">
            <mxPoint x="186" y="853.75" as="sourcePoint" />
            <mxPoint x="280" y="756.25" as="targetPoint" />
          </mxGeometry>
        </mxCell>
        <mxCell id="MX0C3Jx3wyEqu1No00II-174" value="" style="endArrow=none;html=1;rounded=0;entryX=0;entryY=0.75;entryDx=0;entryDy=0;" parent="1" source="MX0C3Jx3wyEqu1No00II-114" edge="1">
          <mxGeometry width="50" height="50" relative="1" as="geometry">
            <mxPoint x="260" y="810" as="sourcePoint" />
            <mxPoint x="280" y="780" as="targetPoint" />
          </mxGeometry>
        </mxCell>
        <mxCell id="MX0C3Jx3wyEqu1No00II-175" value="" style="endArrow=none;html=1;rounded=0;" parent="1" edge="1">
          <mxGeometry width="50" height="50" relative="1" as="geometry">
            <mxPoint x="505" as="sourcePoint" />
            <mxPoint x="490" y="-40" as="targetPoint" />
          </mxGeometry>
        </mxCell>
        <mxCell id="MX0C3Jx3wyEqu1No00II-179" value="" style="endArrow=none;html=1;rounded=0;" parent="1" target="MX0C3Jx3wyEqu1No00II-93" edge="1">
          <mxGeometry width="50" height="50" relative="1" as="geometry">
            <mxPoint x="1020" y="280" as="sourcePoint" />
            <mxPoint x="1070" y="170" as="targetPoint" />
          </mxGeometry>
        </mxCell>
        <mxCell id="MX0C3Jx3wyEqu1No00II-180" value="" style="endArrow=none;html=1;rounded=0;" parent="1" edge="1">
          <mxGeometry width="50" height="50" relative="1" as="geometry">
            <mxPoint x="555" as="sourcePoint" />
            <mxPoint x="560" y="-40" as="targetPoint" />
          </mxGeometry>
        </mxCell>
        <mxCell id="MX0C3Jx3wyEqu1No00II-181" value="" style="endArrow=none;html=1;rounded=0;entryX=0;entryY=0.5;entryDx=0;entryDy=0;" parent="1" target="MX0C3Jx3wyEqu1No00II-92" edge="1">
          <mxGeometry width="50" height="50" relative="1" as="geometry">
            <mxPoint x="1020" y="260" as="sourcePoint" />
            <mxPoint x="1120" y="160" as="targetPoint" />
          </mxGeometry>
        </mxCell>
        <mxCell id="MX0C3Jx3wyEqu1No00II-182" value="" style="endArrow=none;html=1;rounded=0;" parent="1" edge="1">
          <mxGeometry width="50" height="50" relative="1" as="geometry">
            <mxPoint x="1020" y="235" as="sourcePoint" />
            <mxPoint x="1080" y="210" as="targetPoint" />
          </mxGeometry>
        </mxCell>
        <mxCell id="MX0C3Jx3wyEqu1No00II-185" value="" style="endArrow=none;html=1;rounded=0;" parent="1" edge="1">
          <mxGeometry width="50" height="50" relative="1" as="geometry">
            <mxPoint x="620" as="sourcePoint" />
            <mxPoint x="650" y="-30" as="targetPoint" />
          </mxGeometry>
        </mxCell>
        <mxCell id="MX0C3Jx3wyEqu1No00II-186" value="" style="endArrow=none;html=1;rounded=0;exitX=0.5;exitY=0;exitDx=0;exitDy=0;" parent="1" source="MX0C3Jx3wyEqu1No00II-4" edge="1">
          <mxGeometry width="50" height="50" relative="1" as="geometry">
            <mxPoint x="890" y="250" as="sourcePoint" />
            <mxPoint x="970" y="170" as="targetPoint" />
          </mxGeometry>
        </mxCell>
        <mxCell id="MX0C3Jx3wyEqu1No00II-187" value="" style="endArrow=none;html=1;rounded=0;entryX=0;entryY=0;entryDx=0;entryDy=0;" parent="1" target="MX0C3Jx3wyEqu1No00II-2" edge="1">
          <mxGeometry width="50" height="50" relative="1" as="geometry">
            <mxPoint x="404" y="80" as="sourcePoint" />
            <mxPoint x="454" y="30" as="targetPoint" />
          </mxGeometry>
        </mxCell>
        <mxCell id="MX0C3Jx3wyEqu1No00II-188" value="" style="endArrow=none;html=1;rounded=0;entryX=0.5;entryY=1;entryDx=0;entryDy=0;" parent="1" target="MX0C3Jx3wyEqu1No00II-87" edge="1">
          <mxGeometry width="50" height="50" relative="1" as="geometry">
            <mxPoint x="900" y="220" as="sourcePoint" />
            <mxPoint x="960" y="150" as="targetPoint" />
          </mxGeometry>
        </mxCell>
        <mxCell id="MX0C3Jx3wyEqu1No00II-189" value="" style="endArrow=none;html=1;rounded=0;entryX=0;entryY=0;entryDx=0;entryDy=0;" parent="1" target="MX0C3Jx3wyEqu1No00II-2" edge="1">
          <mxGeometry width="50" height="50" relative="1" as="geometry">
            <mxPoint x="400" y="140" as="sourcePoint" />
            <mxPoint x="450" y="90" as="targetPoint" />
          </mxGeometry>
        </mxCell>
        <mxCell id="MX0C3Jx3wyEqu1No00II-190" value="" style="endArrow=none;html=1;rounded=0;entryX=0;entryY=0.5;entryDx=0;entryDy=0;" parent="1" source="MX0C3Jx3wyEqu1No00II-207" target="MX0C3Jx3wyEqu1No00II-2" edge="1">
          <mxGeometry width="50" height="50" relative="1" as="geometry">
            <mxPoint x="414" y="180" as="sourcePoint" />
            <mxPoint x="514" y="80" as="targetPoint" />
          </mxGeometry>
        </mxCell>
        <mxCell id="MX0C3Jx3wyEqu1No00II-191" value="" style="endArrow=none;html=1;rounded=0;" parent="1" edge="1">
          <mxGeometry width="50" height="50" relative="1" as="geometry">
            <mxPoint x="595" y="220" as="sourcePoint" />
            <mxPoint x="710" y="130" as="targetPoint" />
          </mxGeometry>
        </mxCell>
        <mxCell id="MX0C3Jx3wyEqu1No00II-193" value="" style="endArrow=none;html=1;rounded=0;" parent="1" edge="1">
          <mxGeometry width="50" height="50" relative="1" as="geometry">
            <mxPoint x="580" y="220" as="sourcePoint" />
            <mxPoint x="720" y="80" as="targetPoint" />
          </mxGeometry>
        </mxCell>
        <mxCell id="MX0C3Jx3wyEqu1No00II-194" value="" style="endArrow=none;html=1;rounded=0;entryX=0.25;entryY=1;entryDx=0;entryDy=0;" parent="1" target="MX0C3Jx3wyEqu1No00II-98" edge="1">
          <mxGeometry width="50" height="50" relative="1" as="geometry">
            <mxPoint x="615" y="480" as="sourcePoint" />
            <mxPoint x="620" y="470" as="targetPoint" />
          </mxGeometry>
        </mxCell>
        <mxCell id="MX0C3Jx3wyEqu1No00II-195" value="" style="endArrow=none;html=1;rounded=0;exitX=1;exitY=0.5;exitDx=0;exitDy=0;" parent="1" source="MX0C3Jx3wyEqu1No00II-10" edge="1">
          <mxGeometry width="50" height="50" relative="1" as="geometry">
            <mxPoint x="620" y="530" as="sourcePoint" />
            <mxPoint x="650" y="500" as="targetPoint" />
          </mxGeometry>
        </mxCell>
        <mxCell id="MX0C3Jx3wyEqu1No00II-197" value="" style="endArrow=none;html=1;rounded=0;entryX=1;entryY=0;entryDx=0;entryDy=0;" parent="1" target="MX0C3Jx3wyEqu1No00II-46" edge="1">
          <mxGeometry width="50" height="50" relative="1" as="geometry">
            <mxPoint x="620" y="540" as="sourcePoint" />
            <mxPoint x="670" y="490" as="targetPoint" />
          </mxGeometry>
        </mxCell>
        <mxCell id="MX0C3Jx3wyEqu1No00II-201" value="" style="endArrow=none;html=1;rounded=0;exitX=0;exitY=0.5;exitDx=0;exitDy=0;" parent="1" source="MX0C3Jx3wyEqu1No00II-1" target="MX0C3Jx3wyEqu1No00II-200" edge="1">
          <mxGeometry width="50" height="50" relative="1" as="geometry">
            <mxPoint x="130" y="250" as="sourcePoint" />
            <mxPoint x="80" y="250" as="targetPoint" />
          </mxGeometry>
        </mxCell>
        <mxCell id="MX0C3Jx3wyEqu1No00II-200" value="" style="ellipse;whiteSpace=wrap;html=1;aspect=fixed;" parent="1" vertex="1">
          <mxGeometry x="60" y="240" width="20" height="20" as="geometry" />
        </mxCell>
        <mxCell id="MX0C3Jx3wyEqu1No00II-202" value="" style="endArrow=none;html=1;rounded=0;exitX=0;exitY=0.5;exitDx=0;exitDy=0;" parent="1" source="MX0C3Jx3wyEqu1No00II-1" target="MX0C3Jx3wyEqu1No00II-199" edge="1">
          <mxGeometry width="50" height="50" relative="1" as="geometry">
            <mxPoint x="130" y="250" as="sourcePoint" />
            <mxPoint x="100" y="210" as="targetPoint" />
          </mxGeometry>
        </mxCell>
        <mxCell id="MX0C3Jx3wyEqu1No00II-199" value="" style="ellipse;whiteSpace=wrap;html=1;aspect=fixed;" parent="1" vertex="1">
          <mxGeometry x="90" y="195" width="20" height="20" as="geometry" />
        </mxCell>
        <mxCell id="MX0C3Jx3wyEqu1No00II-204" value="" style="ellipse;whiteSpace=wrap;html=1;aspect=fixed;" parent="1" vertex="1">
          <mxGeometry x="110" y="180" width="20" height="20" as="geometry" />
        </mxCell>
        <mxCell id="MX0C3Jx3wyEqu1No00II-205" style="edgeStyle=orthogonalEdgeStyle;rounded=0;orthogonalLoop=1;jettySize=auto;html=1;exitX=1;exitY=0.5;exitDx=0;exitDy=0;entryX=1;entryY=1;entryDx=0;entryDy=0;" parent="1" source="MX0C3Jx3wyEqu1No00II-204" target="MX0C3Jx3wyEqu1No00II-204" edge="1">
          <mxGeometry relative="1" as="geometry" />
        </mxCell>
        <mxCell id="MX0C3Jx3wyEqu1No00II-208" value="" style="endArrow=none;html=1;rounded=0;entryX=0;entryY=0.5;entryDx=0;entryDy=0;" parent="1" target="MX0C3Jx3wyEqu1No00II-207" edge="1">
          <mxGeometry width="50" height="50" relative="1" as="geometry">
            <mxPoint x="414" y="180" as="sourcePoint" />
            <mxPoint x="500" y="250" as="targetPoint" />
          </mxGeometry>
        </mxCell>
        <mxCell id="MX0C3Jx3wyEqu1No00II-207" value="" style="ellipse;whiteSpace=wrap;html=1;aspect=fixed;" parent="1" vertex="1">
          <mxGeometry x="414" y="175" width="20" height="20" as="geometry" />
        </mxCell>
        <mxCell id="_p6x9_ztGqRjt_vNBHAd-5" value="" style="endArrow=none;html=1;rounded=0;" parent="1" edge="1">
          <mxGeometry width="50" height="50" relative="1" as="geometry">
            <mxPoint x="1450" y="680" as="sourcePoint" />
            <mxPoint x="1430" y="630" as="targetPoint" />
          </mxGeometry>
        </mxCell>
        <mxCell id="_p6x9_ztGqRjt_vNBHAd-6" value="idType&lt;div&gt;&lt;br&gt;&lt;/div&gt;" style="text;html=1;align=center;verticalAlign=middle;whiteSpace=wrap;rounded=0;" parent="1" vertex="1">
          <mxGeometry x="1430" y="680" width="60" height="30" as="geometry" />
        </mxCell>
        <mxCell id="_p6x9_ztGqRjt_vNBHAd-7" value="" style="endArrow=none;html=1;rounded=0;entryX=-0.024;entryY=0.651;entryDx=0;entryDy=0;entryPerimeter=0;" parent="1" target="MX0C3Jx3wyEqu1No00II-10" edge="1">
          <mxGeometry width="50" height="50" relative="1" as="geometry">
            <mxPoint x="430" y="540" as="sourcePoint" />
            <mxPoint x="480" y="490" as="targetPoint" />
          </mxGeometry>
        </mxCell>
        <mxCell id="_p6x9_ztGqRjt_vNBHAd-8" value="" style="endArrow=none;html=1;rounded=0;" parent="1" target="_p6x9_ztGqRjt_vNBHAd-9" edge="1">
          <mxGeometry width="50" height="50" relative="1" as="geometry">
            <mxPoint x="620" y="540" as="sourcePoint" />
            <mxPoint x="690" y="570" as="targetPoint" />
          </mxGeometry>
        </mxCell>
        <mxCell id="_p6x9_ztGqRjt_vNBHAd-9" value="idDeposit" style="text;html=1;align=center;verticalAlign=middle;whiteSpace=wrap;rounded=0;" parent="1" vertex="1">
          <mxGeometry x="685" y="560" width="60" height="30" as="geometry" />
        </mxCell>
        <mxCell id="_p6x9_ztGqRjt_vNBHAd-11" value="Requires&lt;div&gt;&lt;br&gt;&lt;/div&gt;" style="rhombus;whiteSpace=wrap;html=1;" parent="1" vertex="1">
          <mxGeometry x="827" y="480" width="80" height="80" as="geometry" />
        </mxCell>
        <mxCell id="_p6x9_ztGqRjt_vNBHAd-13" value="" style="endArrow=none;html=1;rounded=0;" parent="1" target="_p6x9_ztGqRjt_vNBHAd-14" edge="1">
          <mxGeometry width="50" height="50" relative="1" as="geometry">
            <mxPoint x="905" y="520" as="sourcePoint" />
            <mxPoint x="1010" y="520" as="targetPoint" />
          </mxGeometry>
        </mxCell>
        <mxCell id="_p6x9_ztGqRjt_vNBHAd-14" value="Deposit" style="rounded=0;whiteSpace=wrap;html=1;" parent="1" vertex="1">
          <mxGeometry x="950" y="490" width="120" height="60" as="geometry" />
        </mxCell>
        <mxCell id="_p6x9_ztGqRjt_vNBHAd-15" value="" style="endArrow=none;html=1;rounded=0;" parent="1" source="_p6x9_ztGqRjt_vNBHAd-19" edge="1">
          <mxGeometry width="50" height="50" relative="1" as="geometry">
            <mxPoint x="1070" y="490" as="sourcePoint" />
            <mxPoint x="1082.9289321881342" y="477.07106781186576" as="targetPoint" />
          </mxGeometry>
        </mxCell>
        <mxCell id="_p6x9_ztGqRjt_vNBHAd-20" value="" style="endArrow=none;html=1;rounded=0;" parent="1" target="_p6x9_ztGqRjt_vNBHAd-19" edge="1">
          <mxGeometry width="50" height="50" relative="1" as="geometry">
            <mxPoint x="1070" y="490" as="sourcePoint" />
            <mxPoint x="1082.9289321881342" y="477.07106781186576" as="targetPoint" />
          </mxGeometry>
        </mxCell>
        <mxCell id="_p6x9_ztGqRjt_vNBHAd-19" value="" style="shape=image;html=1;verticalAlign=top;verticalLabelPosition=bottom;labelBackgroundColor=#ffffff;imageAspect=0;aspect=fixed;image=https://cdn4.iconfinder.com/data/icons/essential-app-2/16/record-round-circle-dot-128.png" parent="1" vertex="1">
          <mxGeometry x="1080" y="470" width="10" height="10" as="geometry" />
        </mxCell>
        <mxCell id="_p6x9_ztGqRjt_vNBHAd-21" value="" style="endArrow=none;html=1;rounded=0;" parent="1" edge="1">
          <mxGeometry width="50" height="50" relative="1" as="geometry">
            <mxPoint x="1070" y="520" as="sourcePoint" />
            <mxPoint x="1110" y="520" as="targetPoint" />
          </mxGeometry>
        </mxCell>
        <mxCell id="_p6x9_ztGqRjt_vNBHAd-22" value="amount" style="text;html=1;align=center;verticalAlign=middle;whiteSpace=wrap;rounded=0;" parent="1" vertex="1">
          <mxGeometry x="1110" y="510" width="60" height="30" as="geometry" />
        </mxCell>
        <mxCell id="_p6x9_ztGqRjt_vNBHAd-23" value="idDeposit" style="text;html=1;align=center;verticalAlign=middle;whiteSpace=wrap;rounded=0;" parent="1" vertex="1">
          <mxGeometry x="1080" y="450" width="60" height="30" as="geometry" />
        </mxCell>
        <mxCell id="_p6x9_ztGqRjt_vNBHAd-24" value="" style="endArrow=none;html=1;rounded=0;entryX=0;entryY=0.5;entryDx=0;entryDy=0;" parent="1" target="_p6x9_ztGqRjt_vNBHAd-11" edge="1">
          <mxGeometry width="50" height="50" relative="1" as="geometry">
            <mxPoint x="620" y="520" as="sourcePoint" />
            <mxPoint x="670" y="470" as="targetPoint" />
          </mxGeometry>
        </mxCell>
        <mxCell id="sBHbOTUzKlCYWQ9xlzS5-4" value="" style="endArrow=none;html=1;rounded=0;exitX=0.75;exitY=1;exitDx=0;exitDy=0;entryX=0;entryY=0.5;entryDx=0;entryDy=0;" parent="1" source="MX0C3Jx3wyEqu1No00II-4" target="sBHbOTUzKlCYWQ9xlzS5-5" edge="1">
          <mxGeometry width="50" height="50" relative="1" as="geometry">
            <mxPoint x="750" y="570" as="sourcePoint" />
            <mxPoint x="800" y="520" as="targetPoint" />
          </mxGeometry>
        </mxCell>
        <mxCell id="sBHbOTUzKlCYWQ9xlzS5-5" value="Has" style="rhombus;whiteSpace=wrap;html=1;" parent="1" vertex="1">
          <mxGeometry x="1210" y="330" width="80" height="80" as="geometry" />
        </mxCell>
        <mxCell id="sBHbOTUzKlCYWQ9xlzS5-6" value="" style="endArrow=none;html=1;rounded=0;exitX=1;exitY=0.5;exitDx=0;exitDy=0;entryX=0.667;entryY=0;entryDx=0;entryDy=0;entryPerimeter=0;" parent="1" source="sBHbOTUzKlCYWQ9xlzS5-5" target="MX0C3Jx3wyEqu1No00II-6" edge="1">
          <mxGeometry width="50" height="50" relative="1" as="geometry">
            <mxPoint x="1310" y="395" as="sourcePoint" />
            <mxPoint x="1540" y="460" as="targetPoint" />
          </mxGeometry>
        </mxCell>
        <mxCell id="sBHbOTUzKlCYWQ9xlzS5-7" value="1" style="text;html=1;align=center;verticalAlign=middle;resizable=0;points=[];autosize=1;strokeColor=none;fillColor=none;" parent="1" vertex="1">
          <mxGeometry x="715" y="488" width="30" height="30" as="geometry" />
        </mxCell>
        <mxCell id="sBHbOTUzKlCYWQ9xlzS5-10" value="phone" style="text;html=1;align=center;verticalAlign=middle;resizable=0;points=[];autosize=1;strokeColor=none;fillColor=none;" parent="1" vertex="1">
          <mxGeometry x="440" y="88" width="60" height="30" as="geometry" />
        </mxCell>
        <mxCell id="sBHbOTUzKlCYWQ9xlzS5-11" value="" style="endArrow=none;html=1;rounded=0;entryX=0.25;entryY=0;entryDx=0;entryDy=0;" parent="1" source="sBHbOTUzKlCYWQ9xlzS5-10" target="MX0C3Jx3wyEqu1No00II-2" edge="1">
          <mxGeometry width="50" height="50" relative="1" as="geometry">
            <mxPoint x="430" y="80" as="sourcePoint" />
            <mxPoint x="526" y="220" as="targetPoint" />
          </mxGeometry>
        </mxCell>
        <mxCell id="sBHbOTUzKlCYWQ9xlzS5-12" value="" style="ellipse;whiteSpace=wrap;html=1;aspect=fixed;" parent="1" vertex="1">
          <mxGeometry x="967" y="165" width="15" height="15" as="geometry" />
        </mxCell>
        <mxCell id="sBHbOTUzKlCYWQ9xlzS5-15" value="vehicleDisplacement" style="text;html=1;align=center;verticalAlign=middle;resizable=0;points=[];autosize=1;strokeColor=none;fillColor=none;" parent="1" vertex="1">
          <mxGeometry x="1000" y="157.5" width="130" height="30" as="geometry" />
        </mxCell>
        <mxCell id="sBHbOTUzKlCYWQ9xlzS5-16" value="" style="endArrow=none;html=1;rounded=0;exitX=0.75;exitY=0;exitDx=0;exitDy=0;entryX=0.435;entryY=0.97;entryDx=0;entryDy=0;entryPerimeter=0;" parent="1" source="MX0C3Jx3wyEqu1No00II-4" target="sBHbOTUzKlCYWQ9xlzS5-15" edge="1">
          <mxGeometry width="50" height="50" relative="1" as="geometry">
            <mxPoint x="1030" y="360" as="sourcePoint" />
            <mxPoint x="1080" y="310" as="targetPoint" />
          </mxGeometry>
        </mxCell>
        <mxCell id="sBHbOTUzKlCYWQ9xlzS5-18" value="idRide" style="text;html=1;align=center;verticalAlign=middle;resizable=0;points=[];autosize=1;strokeColor=none;fillColor=none;" parent="1" vertex="1">
          <mxGeometry x="600" y="990" width="60" height="30" as="geometry" />
        </mxCell>
        <mxCell id="sBHbOTUzKlCYWQ9xlzS5-19" value="completed" style="text;html=1;align=center;verticalAlign=middle;resizable=0;points=[];autosize=1;strokeColor=none;fillColor=none;" parent="1" vertex="1">
          <mxGeometry x="570" y="800" width="80" height="30" as="geometry" />
        </mxCell>
        <mxCell id="sBHbOTUzKlCYWQ9xlzS5-21" value="date" style="text;html=1;align=center;verticalAlign=middle;resizable=0;points=[];autosize=1;strokeColor=none;fillColor=none;" parent="1" vertex="1">
          <mxGeometry x="460" y="1000" width="50" height="30" as="geometry" />
        </mxCell>
        <mxCell id="sBHbOTUzKlCYWQ9xlzS5-22" value="" style="endArrow=none;html=1;rounded=0;exitX=0.75;exitY=0;exitDx=0;exitDy=0;entryX=0.567;entryY=0.965;entryDx=0;entryDy=0;entryPerimeter=0;" parent="1" source="MX0C3Jx3wyEqu1No00II-17" target="sBHbOTUzKlCYWQ9xlzS5-19" edge="1">
          <mxGeometry width="50" height="50" relative="1" as="geometry">
            <mxPoint x="550" y="840" as="sourcePoint" />
            <mxPoint x="600" y="790" as="targetPoint" />
          </mxGeometry>
        </mxCell>
        <mxCell id="sBHbOTUzKlCYWQ9xlzS5-24" value="" style="endArrow=none;html=1;rounded=0;exitX=0.75;exitY=1;exitDx=0;exitDy=0;" parent="1" source="MX0C3Jx3wyEqu1No00II-17" target="sBHbOTUzKlCYWQ9xlzS5-18" edge="1">
          <mxGeometry width="50" height="50" relative="1" as="geometry">
            <mxPoint x="550" y="840" as="sourcePoint" />
            <mxPoint x="600" y="790" as="targetPoint" />
          </mxGeometry>
        </mxCell>
        <mxCell id="sBHbOTUzKlCYWQ9xlzS5-25" value="" style="endArrow=none;html=1;rounded=0;exitX=0.25;exitY=1;exitDx=0;exitDy=0;entryX=0.519;entryY=0.063;entryDx=0;entryDy=0;entryPerimeter=0;" parent="1" source="MX0C3Jx3wyEqu1No00II-17" target="sBHbOTUzKlCYWQ9xlzS5-21" edge="1">
          <mxGeometry width="50" height="50" relative="1" as="geometry">
            <mxPoint x="550" y="840" as="sourcePoint" />
            <mxPoint x="600" y="790" as="targetPoint" />
          </mxGeometry>
        </mxCell>
        <mxCell id="sBHbOTUzKlCYWQ9xlzS5-26" value="" style="endArrow=none;html=1;rounded=0;exitX=0.883;exitY=1.082;exitDx=0;exitDy=0;entryX=0;entryY=0.25;entryDx=0;entryDy=0;exitPerimeter=0;" parent="1" source="MX0C3Jx3wyEqu1No00II-96" target="MX0C3Jx3wyEqu1No00II-10" edge="1">
          <mxGeometry width="50" height="50" relative="1" as="geometry">
            <mxPoint x="630" y="510" as="sourcePoint" />
            <mxPoint x="680" y="460" as="targetPoint" />
          </mxGeometry>
        </mxCell>
        <mxCell id="sBHbOTUzKlCYWQ9xlzS5-27" value="idUser" style="text;html=1;align=center;verticalAlign=middle;resizable=0;points=[];autosize=1;strokeColor=none;fillColor=none;" parent="1" vertex="1">
          <mxGeometry x="570" y="398" width="60" height="30" as="geometry" />
        </mxCell>
        <mxCell id="sBHbOTUzKlCYWQ9xlzS5-28" value="" style="endArrow=none;html=1;rounded=0;exitX=0.75;exitY=0;exitDx=0;exitDy=0;entryX=0.403;entryY=0.914;entryDx=0;entryDy=0;entryPerimeter=0;" parent="1" source="MX0C3Jx3wyEqu1No00II-10" target="sBHbOTUzKlCYWQ9xlzS5-27" edge="1">
          <mxGeometry width="50" height="50" relative="1" as="geometry">
            <mxPoint x="630" y="510" as="sourcePoint" />
            <mxPoint x="680" y="460" as="targetPoint" />
          </mxGeometry>
        </mxCell>
        <mxCell id="sBHbOTUzKlCYWQ9xlzS5-33" value="totalKm" style="text;html=1;align=center;verticalAlign=middle;resizable=0;points=[];autosize=1;strokeColor=none;fillColor=none;" parent="1" vertex="1">
          <mxGeometry x="800" y="648" width="60" height="30" as="geometry" />
        </mxCell>
        <mxCell id="sBHbOTUzKlCYWQ9xlzS5-34" value="" style="endArrow=none;html=1;rounded=0;exitX=0.706;exitY=0.036;exitDx=0;exitDy=0;exitPerimeter=0;" parent="1" source="MX0C3Jx3wyEqu1No00II-15" target="sBHbOTUzKlCYWQ9xlzS5-33" edge="1">
          <mxGeometry width="50" height="50" relative="1" as="geometry">
            <mxPoint x="780" y="810" as="sourcePoint" />
            <mxPoint x="830" y="760" as="targetPoint" />
          </mxGeometry>
        </mxCell>
        <mxCell id="sBHbOTUzKlCYWQ9xlzS5-36" value="refers to" style="rhombus;whiteSpace=wrap;html=1;" parent="1" vertex="1">
          <mxGeometry x="860" y="870" width="60" height="60" as="geometry" />
        </mxCell>
        <mxCell id="sBHbOTUzKlCYWQ9xlzS5-37" value="Report" style="whiteSpace=wrap;html=1;" parent="1" vertex="1">
          <mxGeometry x="967" y="975" width="120" height="60" as="geometry" />
        </mxCell>
        <mxCell id="sBHbOTUzKlCYWQ9xlzS5-38" value="" style="endArrow=none;html=1;rounded=0;exitX=1;exitY=0;exitDx=0;exitDy=0;" parent="1" source="MX0C3Jx3wyEqu1No00II-48" target="sBHbOTUzKlCYWQ9xlzS5-36" edge="1">
          <mxGeometry width="50" height="50" relative="1" as="geometry">
            <mxPoint x="910" y="930" as="sourcePoint" />
            <mxPoint x="960" y="880" as="targetPoint" />
          </mxGeometry>
        </mxCell>
        <mxCell id="sBHbOTUzKlCYWQ9xlzS5-39" value="" style="endArrow=none;html=1;rounded=0;exitX=1;exitY=1;exitDx=0;exitDy=0;entryX=0;entryY=0.25;entryDx=0;entryDy=0;" parent="1" source="sBHbOTUzKlCYWQ9xlzS5-36" target="sBHbOTUzKlCYWQ9xlzS5-37" edge="1">
          <mxGeometry width="50" height="50" relative="1" as="geometry">
            <mxPoint x="910" y="930" as="sourcePoint" />
            <mxPoint x="960" y="880" as="targetPoint" />
          </mxGeometry>
        </mxCell>
        <mxCell id="sBHbOTUzKlCYWQ9xlzS5-41" value="idReport" style="text;html=1;align=center;verticalAlign=middle;resizable=0;points=[];autosize=1;strokeColor=none;fillColor=none;" parent="1" vertex="1">
          <mxGeometry x="1015" y="918" width="70" height="30" as="geometry" />
        </mxCell>
        <mxCell id="sBHbOTUzKlCYWQ9xlzS5-42" value="" style="endArrow=none;html=1;rounded=0;exitX=0.7;exitY=-0.008;exitDx=0;exitDy=0;exitPerimeter=0;entryX=0.5;entryY=0.995;entryDx=0;entryDy=0;entryPerimeter=0;" parent="1" source="sBHbOTUzKlCYWQ9xlzS5-37" target="sBHbOTUzKlCYWQ9xlzS5-41" edge="1">
          <mxGeometry width="50" height="50" relative="1" as="geometry">
            <mxPoint x="910" y="930" as="sourcePoint" />
            <mxPoint x="960" y="880" as="targetPoint" />
          </mxGeometry>
        </mxCell>
        <mxCell id="sBHbOTUzKlCYWQ9xlzS5-43" value="" style="shape=image;html=1;verticalAlign=top;verticalLabelPosition=bottom;labelBackgroundColor=#ffffff;imageAspect=0;aspect=fixed;image=https://cdn4.iconfinder.com/data/icons/essential-app-2/16/record-round-circle-dot-128.png" parent="1" vertex="1">
          <mxGeometry x="1045" y="940" width="10" height="10" as="geometry" />
        </mxCell>
        <mxCell id="sBHbOTUzKlCYWQ9xlzS5-44" value="idRide" style="text;html=1;align=center;verticalAlign=middle;resizable=0;points=[];autosize=1;strokeColor=none;fillColor=none;" parent="1" vertex="1">
          <mxGeometry x="1100" y="938" width="60" height="30" as="geometry" />
        </mxCell>
        <mxCell id="sBHbOTUzKlCYWQ9xlzS5-45" value="" style="endArrow=none;html=1;rounded=0;exitX=1;exitY=0.25;exitDx=0;exitDy=0;entryX=0.452;entryY=0.932;entryDx=0;entryDy=0;entryPerimeter=0;" parent="1" source="sBHbOTUzKlCYWQ9xlzS5-37" target="sBHbOTUzKlCYWQ9xlzS5-44" edge="1">
          <mxGeometry width="50" height="50" relative="1" as="geometry">
            <mxPoint x="920" y="920" as="sourcePoint" />
            <mxPoint x="970" y="870" as="targetPoint" />
          </mxGeometry>
        </mxCell>
        <mxCell id="sBHbOTUzKlCYWQ9xlzS5-46" value="description" style="text;html=1;align=center;verticalAlign=middle;resizable=0;points=[];autosize=1;strokeColor=none;fillColor=none;" parent="1" vertex="1">
          <mxGeometry x="1130" y="990" width="80" height="30" as="geometry" />
        </mxCell>
        <mxCell id="sBHbOTUzKlCYWQ9xlzS5-47" value="" style="endArrow=none;html=1;rounded=0;exitX=1.009;exitY=0.659;exitDx=0;exitDy=0;exitPerimeter=0;" parent="1" source="sBHbOTUzKlCYWQ9xlzS5-37" target="sBHbOTUzKlCYWQ9xlzS5-46" edge="1">
          <mxGeometry width="50" height="50" relative="1" as="geometry">
            <mxPoint x="980" y="1050" as="sourcePoint" />
            <mxPoint x="1030" y="1000" as="targetPoint" />
          </mxGeometry>
        </mxCell>
        <mxCell id="sBHbOTUzKlCYWQ9xlzS5-48" value="idStatus" style="text;html=1;align=center;verticalAlign=middle;resizable=0;points=[];autosize=1;strokeColor=none;fillColor=none;" parent="1" vertex="1">
          <mxGeometry x="1095" y="1060" width="70" height="30" as="geometry" />
        </mxCell>
        <mxCell id="sBHbOTUzKlCYWQ9xlzS5-49" value="" style="endArrow=none;html=1;rounded=0;exitX=1;exitY=1;exitDx=0;exitDy=0;entryX=0.214;entryY=0.103;entryDx=0;entryDy=0;entryPerimeter=0;" parent="1" source="sBHbOTUzKlCYWQ9xlzS5-37" target="sBHbOTUzKlCYWQ9xlzS5-48" edge="1">
          <mxGeometry width="50" height="50" relative="1" as="geometry">
            <mxPoint x="980" y="1050" as="sourcePoint" />
            <mxPoint x="1030" y="1000" as="targetPoint" />
          </mxGeometry>
        </mxCell>
        <mxCell id="sBHbOTUzKlCYWQ9xlzS5-50" value="1" style="text;html=1;align=center;verticalAlign=middle;resizable=0;points=[];autosize=1;strokeColor=none;fillColor=none;" parent="1" vertex="1">
          <mxGeometry x="820" y="780" width="30" height="30" as="geometry" />
        </mxCell>
        <mxCell id="sBHbOTUzKlCYWQ9xlzS5-51" value="0..1" style="text;html=1;align=center;verticalAlign=middle;resizable=0;points=[];autosize=1;strokeColor=none;fillColor=none;" parent="1" vertex="1">
          <mxGeometry x="950" y="948" width="40" height="30" as="geometry" />
        </mxCell>
        <mxCell id="nl0A60HQpfqVXvjpLoiu-7" style="edgeStyle=orthogonalEdgeStyle;rounded=0;orthogonalLoop=1;jettySize=auto;html=1;exitX=0;exitY=0.5;exitDx=0;exitDy=0;entryX=1;entryY=0.5;entryDx=0;entryDy=0;" edge="1" parent="1" source="nl0A60HQpfqVXvjpLoiu-1" target="nl0A60HQpfqVXvjpLoiu-6">
          <mxGeometry relative="1" as="geometry" />
        </mxCell>
        <mxCell id="nl0A60HQpfqVXvjpLoiu-1" value="is&lt;div&gt;&lt;br&gt;&lt;/div&gt;" style="rhombus;whiteSpace=wrap;html=1;" vertex="1" parent="1">
          <mxGeometry x="-40" y="420" width="80" height="80" as="geometry" />
        </mxCell>
        <mxCell id="nl0A60HQpfqVXvjpLoiu-11" style="edgeStyle=orthogonalEdgeStyle;rounded=0;orthogonalLoop=1;jettySize=auto;html=1;exitX=0;exitY=0.5;exitDx=0;exitDy=0;entryX=1;entryY=0.5;entryDx=0;entryDy=0;" edge="1" parent="1" source="nl0A60HQpfqVXvjpLoiu-3" target="nl0A60HQpfqVXvjpLoiu-4">
          <mxGeometry relative="1" as="geometry" />
        </mxCell>
        <mxCell id="nl0A60HQpfqVXvjpLoiu-3" value="is" style="rhombus;whiteSpace=wrap;html=1;" vertex="1" parent="1">
          <mxGeometry x="-40" width="80" height="80" as="geometry" />
        </mxCell>
        <mxCell id="nl0A60HQpfqVXvjpLoiu-4" value="AccountStatus" style="rounded=0;whiteSpace=wrap;html=1;" vertex="1" parent="1">
          <mxGeometry x="-240" y="10" width="120" height="60" as="geometry" />
        </mxCell>
        <mxCell id="nl0A60HQpfqVXvjpLoiu-6" value="Roles" style="rounded=0;whiteSpace=wrap;html=1;" vertex="1" parent="1">
          <mxGeometry x="-240" y="430" width="120" height="60" as="geometry" />
        </mxCell>
        <mxCell id="nl0A60HQpfqVXvjpLoiu-12" value="" style="endArrow=none;html=1;rounded=0;" edge="1" parent="1" source="nl0A60HQpfqVXvjpLoiu-13">
          <mxGeometry width="50" height="50" relative="1" as="geometry">
            <mxPoint x="-180" y="10" as="sourcePoint" />
            <mxPoint x="-180" y="-40" as="targetPoint" />
          </mxGeometry>
        </mxCell>
        <mxCell id="nl0A60HQpfqVXvjpLoiu-14" value="" style="endArrow=none;html=1;rounded=0;" edge="1" parent="1" target="nl0A60HQpfqVXvjpLoiu-13">
          <mxGeometry width="50" height="50" relative="1" as="geometry">
            <mxPoint x="-180" y="10" as="sourcePoint" />
            <mxPoint x="-180" y="-40" as="targetPoint" />
          </mxGeometry>
        </mxCell>
        <mxCell id="nl0A60HQpfqVXvjpLoiu-13" value="" style="shape=image;html=1;verticalAlign=top;verticalLabelPosition=bottom;labelBackgroundColor=#ffffff;imageAspect=0;aspect=fixed;image=https://cdn4.iconfinder.com/data/icons/essential-app-2/16/record-round-circle-dot-128.png" vertex="1" parent="1">
          <mxGeometry x="-185" y="-50" width="10" height="10" as="geometry" />
        </mxCell>
        <mxCell id="nl0A60HQpfqVXvjpLoiu-15" value="idStatus" style="text;html=1;align=center;verticalAlign=middle;whiteSpace=wrap;rounded=0;" vertex="1" parent="1">
          <mxGeometry x="-210" y="-90" width="60" height="30" as="geometry" />
        </mxCell>
        <mxCell id="nl0A60HQpfqVXvjpLoiu-16" value="" style="endArrow=none;html=1;rounded=0;exitX=0.5;exitY=1;exitDx=0;exitDy=0;" edge="1" parent="1" source="nl0A60HQpfqVXvjpLoiu-4">
          <mxGeometry width="50" height="50" relative="1" as="geometry">
            <mxPoint x="-10" y="390" as="sourcePoint" />
            <mxPoint x="-180" y="120" as="targetPoint" />
          </mxGeometry>
        </mxCell>
        <mxCell id="nl0A60HQpfqVXvjpLoiu-17" value="type" style="text;html=1;align=center;verticalAlign=middle;whiteSpace=wrap;rounded=0;" vertex="1" parent="1">
          <mxGeometry x="-210" y="125" width="60" height="30" as="geometry" />
        </mxCell>
        <mxCell id="nl0A60HQpfqVXvjpLoiu-18" value="" style="endArrow=none;html=1;rounded=0;exitX=0.619;exitY=0.056;exitDx=0;exitDy=0;exitPerimeter=0;" edge="1" parent="1" source="nl0A60HQpfqVXvjpLoiu-19">
          <mxGeometry width="50" height="50" relative="1" as="geometry">
            <mxPoint x="-10" y="390" as="sourcePoint" />
            <mxPoint x="-166" y="360" as="targetPoint" />
          </mxGeometry>
        </mxCell>
        <mxCell id="nl0A60HQpfqVXvjpLoiu-20" value="" style="endArrow=none;html=1;rounded=0;exitX=0.619;exitY=0.056;exitDx=0;exitDy=0;exitPerimeter=0;" edge="1" parent="1" source="nl0A60HQpfqVXvjpLoiu-6" target="nl0A60HQpfqVXvjpLoiu-19">
          <mxGeometry width="50" height="50" relative="1" as="geometry">
            <mxPoint x="-166" y="433" as="sourcePoint" />
            <mxPoint x="-166" y="360" as="targetPoint" />
          </mxGeometry>
        </mxCell>
        <mxCell id="nl0A60HQpfqVXvjpLoiu-19" value="" style="shape=image;html=1;verticalAlign=top;verticalLabelPosition=bottom;labelBackgroundColor=#ffffff;imageAspect=0;aspect=fixed;image=https://cdn4.iconfinder.com/data/icons/essential-app-2/16/record-round-circle-dot-128.png" vertex="1" parent="1">
          <mxGeometry x="-170" y="355" width="10" height="10" as="geometry" />
        </mxCell>
        <mxCell id="nl0A60HQpfqVXvjpLoiu-21" value="Text" style="text;html=1;align=center;verticalAlign=middle;whiteSpace=wrap;rounded=0;" vertex="1" parent="1">
          <mxGeometry x="-20" y="350" width="60" height="30" as="geometry" />
        </mxCell>
        <mxCell id="nl0A60HQpfqVXvjpLoiu-22" value="idRole" style="text;html=1;align=center;verticalAlign=middle;whiteSpace=wrap;rounded=0;" vertex="1" parent="1">
          <mxGeometry x="-195" y="320" width="60" height="30" as="geometry" />
        </mxCell>
        <mxCell id="nl0A60HQpfqVXvjpLoiu-23" value="" style="endArrow=none;html=1;rounded=0;entryX=0.5;entryY=1;entryDx=0;entryDy=0;" edge="1" parent="1" target="nl0A60HQpfqVXvjpLoiu-6">
          <mxGeometry width="50" height="50" relative="1" as="geometry">
            <mxPoint x="-180" y="530" as="sourcePoint" />
            <mxPoint x="40" y="340" as="targetPoint" />
          </mxGeometry>
        </mxCell>
        <mxCell id="nl0A60HQpfqVXvjpLoiu-24" value="type" style="text;html=1;align=center;verticalAlign=middle;whiteSpace=wrap;rounded=0;" vertex="1" parent="1">
          <mxGeometry x="-210" y="530" width="60" height="30" as="geometry" />
        </mxCell>
        <mxCell id="nl0A60HQpfqVXvjpLoiu-38" value="geartype" style="rounded=0;whiteSpace=wrap;html=1;" vertex="1" parent="1">
          <mxGeometry x="1420" y="215" width="120" height="60" as="geometry" />
        </mxCell>
        <mxCell id="nl0A60HQpfqVXvjpLoiu-39" value="has transmission type" style="rhombus;whiteSpace=wrap;html=1;" vertex="1" parent="1">
          <mxGeometry x="1210" y="200" width="70" height="70" as="geometry" />
        </mxCell>
        <mxCell id="nl0A60HQpfqVXvjpLoiu-40" value="" style="endArrow=none;html=1;rounded=0;entryX=0;entryY=0.5;entryDx=0;entryDy=0;" edge="1" parent="1" target="nl0A60HQpfqVXvjpLoiu-39">
          <mxGeometry width="50" height="50" relative="1" as="geometry">
            <mxPoint x="1020" y="250" as="sourcePoint" />
            <mxPoint x="1070" y="200" as="targetPoint" />
          </mxGeometry>
        </mxCell>
        <mxCell id="nl0A60HQpfqVXvjpLoiu-41" value="" style="endArrow=none;html=1;rounded=0;entryX=1;entryY=0.5;entryDx=0;entryDy=0;exitX=0;exitY=0.5;exitDx=0;exitDy=0;" edge="1" parent="1" source="nl0A60HQpfqVXvjpLoiu-38" target="nl0A60HQpfqVXvjpLoiu-39">
          <mxGeometry width="50" height="50" relative="1" as="geometry">
            <mxPoint x="1210" y="350" as="sourcePoint" />
            <mxPoint x="1260" y="300" as="targetPoint" />
          </mxGeometry>
        </mxCell>
        <mxCell id="nl0A60HQpfqVXvjpLoiu-42" value="" style="endArrow=none;html=1;rounded=0;" edge="1" parent="1" source="nl0A60HQpfqVXvjpLoiu-43">
          <mxGeometry width="50" height="50" relative="1" as="geometry">
            <mxPoint x="1480" y="215" as="sourcePoint" />
            <mxPoint x="1480" y="160" as="targetPoint" />
          </mxGeometry>
        </mxCell>
        <mxCell id="nl0A60HQpfqVXvjpLoiu-44" value="" style="endArrow=none;html=1;rounded=0;" edge="1" parent="1" target="nl0A60HQpfqVXvjpLoiu-43">
          <mxGeometry width="50" height="50" relative="1" as="geometry">
            <mxPoint x="1480" y="215" as="sourcePoint" />
            <mxPoint x="1480" y="160" as="targetPoint" />
          </mxGeometry>
        </mxCell>
        <mxCell id="nl0A60HQpfqVXvjpLoiu-43" value="" style="shape=image;html=1;verticalAlign=top;verticalLabelPosition=bottom;labelBackgroundColor=#ffffff;imageAspect=0;aspect=fixed;image=https://cdn4.iconfinder.com/data/icons/essential-app-2/16/record-round-circle-dot-128.png" vertex="1" parent="1">
          <mxGeometry x="1475" y="155" width="10" height="10" as="geometry" />
        </mxCell>
        <mxCell id="nl0A60HQpfqVXvjpLoiu-45" value="idType" style="text;html=1;align=center;verticalAlign=middle;whiteSpace=wrap;rounded=0;" vertex="1" parent="1">
          <mxGeometry x="1450" y="120" width="60" height="30" as="geometry" />
        </mxCell>
        <mxCell id="nl0A60HQpfqVXvjpLoiu-46" value="" style="endArrow=none;html=1;rounded=0;" edge="1" parent="1" target="nl0A60HQpfqVXvjpLoiu-47">
          <mxGeometry width="50" height="50" relative="1" as="geometry">
            <mxPoint x="1485" y="320" as="sourcePoint" />
            <mxPoint x="1485" y="275" as="targetPoint" />
          </mxGeometry>
        </mxCell>
        <mxCell id="nl0A60HQpfqVXvjpLoiu-47" value="type" style="text;html=1;align=center;verticalAlign=middle;whiteSpace=wrap;rounded=0;" vertex="1" parent="1">
          <mxGeometry x="1450" y="320.0000000000002" width="60" height="30" as="geometry" />
        </mxCell>
        <mxCell id="nl0A60HQpfqVXvjpLoiu-48" value="" style="endArrow=none;html=1;rounded=0;exitX=0.5;exitY=0;exitDx=0;exitDy=0;" edge="1" parent="1" source="nl0A60HQpfqVXvjpLoiu-47">
          <mxGeometry width="50" height="50" relative="1" as="geometry">
            <mxPoint x="1300" y="380" as="sourcePoint" />
            <mxPoint x="1480" y="280" as="targetPoint" />
          </mxGeometry>
        </mxCell>
        <mxCell id="nl0A60HQpfqVXvjpLoiu-49" value="is&amp;nbsp;" style="rhombus;whiteSpace=wrap;html=1;" vertex="1" parent="1">
          <mxGeometry x="1520" y="560" width="80" height="80" as="geometry" />
        </mxCell>
        <mxCell id="nl0A60HQpfqVXvjpLoiu-50" value="" style="endArrow=none;html=1;rounded=0;exitX=1;exitY=0.5;exitDx=0;exitDy=0;" edge="1" parent="1" source="MX0C3Jx3wyEqu1No00II-6" target="nl0A60HQpfqVXvjpLoiu-49">
          <mxGeometry width="50" height="50" relative="1" as="geometry">
            <mxPoint x="1220" y="590" as="sourcePoint" />
            <mxPoint x="1270" y="540" as="targetPoint" />
          </mxGeometry>
        </mxCell>
        <mxCell id="nl0A60HQpfqVXvjpLoiu-52" value="" style="endArrow=none;html=1;rounded=0;entryX=1;entryY=0.5;entryDx=0;entryDy=0;" edge="1" parent="1" target="nl0A60HQpfqVXvjpLoiu-49">
          <mxGeometry width="50" height="50" relative="1" as="geometry">
            <mxPoint x="1720" y="600" as="sourcePoint" />
            <mxPoint x="1430" y="570" as="targetPoint" />
          </mxGeometry>
        </mxCell>
        <mxCell id="nl0A60HQpfqVXvjpLoiu-53" value="documenttype" style="rounded=0;whiteSpace=wrap;html=1;" vertex="1" parent="1">
          <mxGeometry x="1710" y="570" width="120" height="60" as="geometry" />
        </mxCell>
        <mxCell id="nl0A60HQpfqVXvjpLoiu-54" value="" style="endArrow=none;html=1;rounded=0;entryX=0.5;entryY=0;entryDx=0;entryDy=0;" edge="1" parent="1" source="nl0A60HQpfqVXvjpLoiu-55" target="nl0A60HQpfqVXvjpLoiu-53">
          <mxGeometry width="50" height="50" relative="1" as="geometry">
            <mxPoint x="1770" y="510" as="sourcePoint" />
            <mxPoint x="1590" y="570" as="targetPoint" />
          </mxGeometry>
        </mxCell>
        <mxCell id="nl0A60HQpfqVXvjpLoiu-56" value="" style="endArrow=none;html=1;rounded=0;entryX=0.5;entryY=0;entryDx=0;entryDy=0;" edge="1" parent="1" target="nl0A60HQpfqVXvjpLoiu-55">
          <mxGeometry width="50" height="50" relative="1" as="geometry">
            <mxPoint x="1770" y="510" as="sourcePoint" />
            <mxPoint x="1770" y="570" as="targetPoint" />
          </mxGeometry>
        </mxCell>
        <mxCell id="nl0A60HQpfqVXvjpLoiu-55" value="" style="shape=image;html=1;verticalAlign=top;verticalLabelPosition=bottom;labelBackgroundColor=#ffffff;imageAspect=0;aspect=fixed;image=https://cdn4.iconfinder.com/data/icons/essential-app-2/16/record-round-circle-dot-128.png" vertex="1" parent="1">
          <mxGeometry x="1765" y="510" width="10" height="10" as="geometry" />
        </mxCell>
        <mxCell id="nl0A60HQpfqVXvjpLoiu-57" value="idType" style="text;html=1;align=center;verticalAlign=middle;whiteSpace=wrap;rounded=0;" vertex="1" parent="1">
          <mxGeometry x="1740" y="470" width="60" height="30" as="geometry" />
        </mxCell>
        <mxCell id="nl0A60HQpfqVXvjpLoiu-58" value="" style="endArrow=none;html=1;rounded=0;exitX=0.5;exitY=1;exitDx=0;exitDy=0;" edge="1" parent="1" source="nl0A60HQpfqVXvjpLoiu-53">
          <mxGeometry width="50" height="50" relative="1" as="geometry">
            <mxPoint x="1540" y="620" as="sourcePoint" />
            <mxPoint x="1770" y="670" as="targetPoint" />
          </mxGeometry>
        </mxCell>
        <mxCell id="nl0A60HQpfqVXvjpLoiu-59" value="type" style="text;html=1;align=center;verticalAlign=middle;whiteSpace=wrap;rounded=0;" vertex="1" parent="1">
          <mxGeometry x="1740" y="670" width="60" height="30" as="geometry" />
        </mxCell>
        <mxCell id="nl0A60HQpfqVXvjpLoiu-69" style="edgeStyle=orthogonalEdgeStyle;rounded=0;orthogonalLoop=1;jettySize=auto;html=1;entryX=1;entryY=0.75;entryDx=0;entryDy=0;" edge="1" parent="1" source="nl0A60HQpfqVXvjpLoiu-60" target="MX0C3Jx3wyEqu1No00II-15">
          <mxGeometry relative="1" as="geometry" />
        </mxCell>
        <mxCell id="nl0A60HQpfqVXvjpLoiu-60" value="is&amp;nbsp;" style="rhombus;whiteSpace=wrap;html=1;" vertex="1" parent="1">
          <mxGeometry x="1195" y="810" width="80" height="80" as="geometry" />
        </mxCell>
        <mxCell id="nl0A60HQpfqVXvjpLoiu-61" value="" style="endArrow=none;html=1;rounded=0;entryX=1;entryY=0.5;entryDx=0;entryDy=0;" edge="1" parent="1" target="nl0A60HQpfqVXvjpLoiu-60">
          <mxGeometry width="50" height="50" relative="1" as="geometry">
            <mxPoint x="1450" y="865" as="sourcePoint" />
            <mxPoint x="1160" y="835" as="targetPoint" />
          </mxGeometry>
        </mxCell>
        <mxCell id="nl0A60HQpfqVXvjpLoiu-62" value="ridestatus&lt;div&gt;&lt;br&gt;&lt;/div&gt;" style="rounded=0;whiteSpace=wrap;html=1;" vertex="1" parent="1">
          <mxGeometry x="1440" y="835" width="120" height="60" as="geometry" />
        </mxCell>
        <mxCell id="nl0A60HQpfqVXvjpLoiu-63" value="" style="endArrow=none;html=1;rounded=0;entryX=0.5;entryY=0;entryDx=0;entryDy=0;" edge="1" parent="1" source="nl0A60HQpfqVXvjpLoiu-65" target="nl0A60HQpfqVXvjpLoiu-62">
          <mxGeometry width="50" height="50" relative="1" as="geometry">
            <mxPoint x="1500" y="775" as="sourcePoint" />
            <mxPoint x="1320" y="835" as="targetPoint" />
          </mxGeometry>
        </mxCell>
        <mxCell id="nl0A60HQpfqVXvjpLoiu-64" value="" style="endArrow=none;html=1;rounded=0;entryX=0.5;entryY=0;entryDx=0;entryDy=0;" edge="1" parent="1" target="nl0A60HQpfqVXvjpLoiu-65">
          <mxGeometry width="50" height="50" relative="1" as="geometry">
            <mxPoint x="1500" y="775" as="sourcePoint" />
            <mxPoint x="1500" y="835" as="targetPoint" />
          </mxGeometry>
        </mxCell>
        <mxCell id="nl0A60HQpfqVXvjpLoiu-65" value="" style="shape=image;html=1;verticalAlign=top;verticalLabelPosition=bottom;labelBackgroundColor=#ffffff;imageAspect=0;aspect=fixed;image=https://cdn4.iconfinder.com/data/icons/essential-app-2/16/record-round-circle-dot-128.png" vertex="1" parent="1">
          <mxGeometry x="1495" y="775" width="10" height="10" as="geometry" />
        </mxCell>
        <mxCell id="nl0A60HQpfqVXvjpLoiu-66" value="idStatus&lt;div&gt;&lt;br&gt;&lt;/div&gt;" style="text;html=1;align=center;verticalAlign=middle;whiteSpace=wrap;rounded=0;" vertex="1" parent="1">
          <mxGeometry x="1470" y="735" width="60" height="30" as="geometry" />
        </mxCell>
        <mxCell id="nl0A60HQpfqVXvjpLoiu-67" value="" style="endArrow=none;html=1;rounded=0;exitX=0.5;exitY=1;exitDx=0;exitDy=0;" edge="1" parent="1" source="nl0A60HQpfqVXvjpLoiu-62">
          <mxGeometry width="50" height="50" relative="1" as="geometry">
            <mxPoint x="1270" y="885" as="sourcePoint" />
            <mxPoint x="1500" y="935" as="targetPoint" />
          </mxGeometry>
        </mxCell>
        <mxCell id="nl0A60HQpfqVXvjpLoiu-68" value="type" style="text;html=1;align=center;verticalAlign=middle;whiteSpace=wrap;rounded=0;" vertex="1" parent="1">
          <mxGeometry x="1470" y="935" width="60" height="30" as="geometry" />
        </mxCell>
        <mxCell id="nl0A60HQpfqVXvjpLoiu-73" value="is&amp;nbsp;" style="rhombus;whiteSpace=wrap;html=1;" vertex="1" parent="1">
          <mxGeometry x="1225" y="1180" width="80" height="80" as="geometry" />
        </mxCell>
        <mxCell id="nl0A60HQpfqVXvjpLoiu-74" value="" style="endArrow=none;html=1;rounded=0;entryX=1;entryY=0.5;entryDx=0;entryDy=0;" edge="1" parent="1" target="nl0A60HQpfqVXvjpLoiu-73">
          <mxGeometry width="50" height="50" relative="1" as="geometry">
            <mxPoint x="1425" y="1220" as="sourcePoint" />
            <mxPoint x="1135" y="1190" as="targetPoint" />
          </mxGeometry>
        </mxCell>
        <mxCell id="nl0A60HQpfqVXvjpLoiu-75" value="reporttype" style="rounded=0;whiteSpace=wrap;html=1;" vertex="1" parent="1">
          <mxGeometry x="1415" y="1190" width="120" height="60" as="geometry" />
        </mxCell>
        <mxCell id="nl0A60HQpfqVXvjpLoiu-76" value="" style="endArrow=none;html=1;rounded=0;entryX=0.5;entryY=0;entryDx=0;entryDy=0;" edge="1" parent="1" source="nl0A60HQpfqVXvjpLoiu-78" target="nl0A60HQpfqVXvjpLoiu-75">
          <mxGeometry width="50" height="50" relative="1" as="geometry">
            <mxPoint x="1475" y="1130" as="sourcePoint" />
            <mxPoint x="1295" y="1190" as="targetPoint" />
          </mxGeometry>
        </mxCell>
        <mxCell id="nl0A60HQpfqVXvjpLoiu-77" value="" style="endArrow=none;html=1;rounded=0;entryX=0.5;entryY=0;entryDx=0;entryDy=0;" edge="1" parent="1" target="nl0A60HQpfqVXvjpLoiu-78">
          <mxGeometry width="50" height="50" relative="1" as="geometry">
            <mxPoint x="1475" y="1130" as="sourcePoint" />
            <mxPoint x="1475" y="1190" as="targetPoint" />
          </mxGeometry>
        </mxCell>
        <mxCell id="nl0A60HQpfqVXvjpLoiu-78" value="" style="shape=image;html=1;verticalAlign=top;verticalLabelPosition=bottom;labelBackgroundColor=#ffffff;imageAspect=0;aspect=fixed;image=https://cdn4.iconfinder.com/data/icons/essential-app-2/16/record-round-circle-dot-128.png" vertex="1" parent="1">
          <mxGeometry x="1470" y="1130" width="10" height="10" as="geometry" />
        </mxCell>
        <mxCell id="nl0A60HQpfqVXvjpLoiu-79" value="idType" style="text;html=1;align=center;verticalAlign=middle;whiteSpace=wrap;rounded=0;" vertex="1" parent="1">
          <mxGeometry x="1445" y="1090" width="60" height="30" as="geometry" />
        </mxCell>
        <mxCell id="nl0A60HQpfqVXvjpLoiu-80" value="" style="endArrow=none;html=1;rounded=0;exitX=0.5;exitY=1;exitDx=0;exitDy=0;" edge="1" parent="1" source="nl0A60HQpfqVXvjpLoiu-75">
          <mxGeometry width="50" height="50" relative="1" as="geometry">
            <mxPoint x="1245" y="1240" as="sourcePoint" />
            <mxPoint x="1475" y="1290" as="targetPoint" />
          </mxGeometry>
        </mxCell>
        <mxCell id="nl0A60HQpfqVXvjpLoiu-81" value="type" style="text;html=1;align=center;verticalAlign=middle;whiteSpace=wrap;rounded=0;" vertex="1" parent="1">
          <mxGeometry x="1445" y="1290" width="60" height="30" as="geometry" />
        </mxCell>
        <mxCell id="nl0A60HQpfqVXvjpLoiu-82" value="" style="endArrow=none;html=1;rounded=0;entryX=0.5;entryY=1;entryDx=0;entryDy=0;" edge="1" parent="1" target="sBHbOTUzKlCYWQ9xlzS5-37">
          <mxGeometry width="50" height="50" relative="1" as="geometry">
            <mxPoint x="1027" y="1080" as="sourcePoint" />
            <mxPoint x="1210" y="770" as="targetPoint" />
          </mxGeometry>
        </mxCell>
        <mxCell id="nl0A60HQpfqVXvjpLoiu-83" value="idType&lt;div&gt;&lt;br&gt;&lt;/div&gt;" style="text;html=1;align=center;verticalAlign=middle;whiteSpace=wrap;rounded=0;" vertex="1" parent="1">
          <mxGeometry x="995" y="1080" width="60" height="30" as="geometry" />
        </mxCell>
        <mxCell id="nl0A60HQpfqVXvjpLoiu-84" value="" style="endArrow=none;html=1;rounded=0;exitX=0.75;exitY=1;exitDx=0;exitDy=0;entryX=0;entryY=0.5;entryDx=0;entryDy=0;" edge="1" parent="1" source="sBHbOTUzKlCYWQ9xlzS5-37" target="nl0A60HQpfqVXvjpLoiu-73">
          <mxGeometry width="50" height="50" relative="1" as="geometry">
            <mxPoint x="1160" y="820" as="sourcePoint" />
            <mxPoint x="1210" y="770" as="targetPoint" />
          </mxGeometry>
        </mxCell>
        <mxCell id="nl0A60HQpfqVXvjpLoiu-86" value="" style="endArrow=none;html=1;rounded=0;entryX=1;entryY=0;entryDx=0;entryDy=0;" edge="1" parent="1">
          <mxGeometry width="50" height="50" relative="1" as="geometry">
            <mxPoint x="950" y="1340" as="sourcePoint" />
            <mxPoint x="937" y="1198.2842712474617" as="targetPoint" />
          </mxGeometry>
        </mxCell>
        <mxCell id="nl0A60HQpfqVXvjpLoiu-87" value="reportstatus&lt;div&gt;&lt;br&gt;&lt;/div&gt;" style="rounded=0;whiteSpace=wrap;html=1;" vertex="1" parent="1">
          <mxGeometry x="940" y="1310" width="120" height="60" as="geometry" />
        </mxCell>
        <mxCell id="nl0A60HQpfqVXvjpLoiu-88" value="" style="endArrow=none;html=1;rounded=0;entryX=0.5;entryY=0;entryDx=0;entryDy=0;" edge="1" parent="1" source="nl0A60HQpfqVXvjpLoiu-90" target="nl0A60HQpfqVXvjpLoiu-87">
          <mxGeometry width="50" height="50" relative="1" as="geometry">
            <mxPoint x="1000" y="1250" as="sourcePoint" />
            <mxPoint x="820" y="1310" as="targetPoint" />
          </mxGeometry>
        </mxCell>
        <mxCell id="nl0A60HQpfqVXvjpLoiu-89" value="" style="endArrow=none;html=1;rounded=0;entryX=0.5;entryY=0;entryDx=0;entryDy=0;" edge="1" parent="1" target="nl0A60HQpfqVXvjpLoiu-90">
          <mxGeometry width="50" height="50" relative="1" as="geometry">
            <mxPoint x="1000" y="1250" as="sourcePoint" />
            <mxPoint x="1000" y="1310" as="targetPoint" />
          </mxGeometry>
        </mxCell>
        <mxCell id="nl0A60HQpfqVXvjpLoiu-90" value="" style="shape=image;html=1;verticalAlign=top;verticalLabelPosition=bottom;labelBackgroundColor=#ffffff;imageAspect=0;aspect=fixed;image=https://cdn4.iconfinder.com/data/icons/essential-app-2/16/record-round-circle-dot-128.png" vertex="1" parent="1">
          <mxGeometry x="995" y="1250" width="10" height="10" as="geometry" />
        </mxCell>
        <mxCell id="nl0A60HQpfqVXvjpLoiu-91" value="idType" style="text;html=1;align=center;verticalAlign=middle;whiteSpace=wrap;rounded=0;" vertex="1" parent="1">
          <mxGeometry x="970" y="1210" width="60" height="30" as="geometry" />
        </mxCell>
        <mxCell id="nl0A60HQpfqVXvjpLoiu-92" value="" style="endArrow=none;html=1;rounded=0;exitX=0.5;exitY=1;exitDx=0;exitDy=0;" edge="1" parent="1" source="nl0A60HQpfqVXvjpLoiu-87">
          <mxGeometry width="50" height="50" relative="1" as="geometry">
            <mxPoint x="770" y="1360" as="sourcePoint" />
            <mxPoint x="1000" y="1410" as="targetPoint" />
          </mxGeometry>
        </mxCell>
        <mxCell id="nl0A60HQpfqVXvjpLoiu-93" value="type" style="text;html=1;align=center;verticalAlign=middle;whiteSpace=wrap;rounded=0;" vertex="1" parent="1">
          <mxGeometry x="970" y="1410" width="60" height="30" as="geometry" />
        </mxCell>
        <mxCell id="nl0A60HQpfqVXvjpLoiu-94" value="has" style="rhombus;whiteSpace=wrap;html=1;" vertex="1" parent="1">
          <mxGeometry x="897" y="1130" width="80" height="80" as="geometry" />
        </mxCell>
        <mxCell id="nl0A60HQpfqVXvjpLoiu-97" value="" style="endArrow=none;html=1;rounded=0;exitX=0.25;exitY=1;exitDx=0;exitDy=0;entryX=0.5;entryY=0;entryDx=0;entryDy=0;" edge="1" parent="1" source="sBHbOTUzKlCYWQ9xlzS5-37" target="nl0A60HQpfqVXvjpLoiu-94">
          <mxGeometry width="50" height="50" relative="1" as="geometry">
            <mxPoint x="1110" y="1000" as="sourcePoint" />
            <mxPoint x="1160" y="950" as="targetPoint" />
          </mxGeometry>
        </mxCell>
        <mxCell id="nl0A60HQpfqVXvjpLoiu-98" value="is" style="rhombus;whiteSpace=wrap;html=1;" vertex="1" parent="1">
          <mxGeometry x="180" y="495" width="80" height="80" as="geometry" />
        </mxCell>
        <mxCell id="nl0A60HQpfqVXvjpLoiu-100" value="" style="endArrow=none;html=1;rounded=0;exitX=1;exitY=0.5;exitDx=0;exitDy=0;entryX=0;entryY=0.5;entryDx=0;entryDy=0;" edge="1" parent="1" source="nl0A60HQpfqVXvjpLoiu-98" target="MX0C3Jx3wyEqu1No00II-10">
          <mxGeometry width="50" height="50" relative="1" as="geometry">
            <mxPoint x="370" y="720" as="sourcePoint" />
            <mxPoint x="420" y="670" as="targetPoint" />
          </mxGeometry>
        </mxCell>
        <mxCell id="nl0A60HQpfqVXvjpLoiu-101" value="ReservationStatus" style="rounded=0;whiteSpace=wrap;html=1;" vertex="1" parent="1">
          <mxGeometry y="560" width="120" height="60" as="geometry" />
        </mxCell>
        <mxCell id="nl0A60HQpfqVXvjpLoiu-102" value="" style="endArrow=none;html=1;rounded=0;entryX=0;entryY=0.5;entryDx=0;entryDy=0;exitX=1;exitY=0;exitDx=0;exitDy=0;" edge="1" parent="1" source="nl0A60HQpfqVXvjpLoiu-101" target="nl0A60HQpfqVXvjpLoiu-98">
          <mxGeometry width="50" height="50" relative="1" as="geometry">
            <mxPoint x="370" y="720" as="sourcePoint" />
            <mxPoint x="420" y="670" as="targetPoint" />
          </mxGeometry>
        </mxCell>
        <mxCell id="nl0A60HQpfqVXvjpLoiu-103" value="" style="endArrow=none;html=1;rounded=0;entryX=0.5;entryY=1;entryDx=0;entryDy=0;" edge="1" parent="1" source="nl0A60HQpfqVXvjpLoiu-105" target="nl0A60HQpfqVXvjpLoiu-101">
          <mxGeometry width="50" height="50" relative="1" as="geometry">
            <mxPoint x="60" y="660" as="sourcePoint" />
            <mxPoint x="420" y="670" as="targetPoint" />
          </mxGeometry>
        </mxCell>
        <mxCell id="nl0A60HQpfqVXvjpLoiu-106" value="" style="endArrow=none;html=1;rounded=0;entryX=0.5;entryY=1;entryDx=0;entryDy=0;" edge="1" parent="1" target="nl0A60HQpfqVXvjpLoiu-105">
          <mxGeometry width="50" height="50" relative="1" as="geometry">
            <mxPoint x="60" y="660" as="sourcePoint" />
            <mxPoint x="60" y="620" as="targetPoint" />
          </mxGeometry>
        </mxCell>
        <mxCell id="nl0A60HQpfqVXvjpLoiu-105" value="" style="shape=image;html=1;verticalAlign=top;verticalLabelPosition=bottom;labelBackgroundColor=#ffffff;imageAspect=0;aspect=fixed;image=https://cdn4.iconfinder.com/data/icons/essential-app-2/16/record-round-circle-dot-128.png" vertex="1" parent="1">
          <mxGeometry x="55" y="660" width="10" height="10" as="geometry" />
        </mxCell>
        <mxCell id="nl0A60HQpfqVXvjpLoiu-107" value="idStatus" style="text;html=1;align=center;verticalAlign=middle;whiteSpace=wrap;rounded=0;" vertex="1" parent="1">
          <mxGeometry x="30" y="670" width="60" height="30" as="geometry" />
        </mxCell>
        <mxCell id="nl0A60HQpfqVXvjpLoiu-108" value="" style="endArrow=none;html=1;rounded=0;entryX=0.5;entryY=0;entryDx=0;entryDy=0;" edge="1" parent="1" target="nl0A60HQpfqVXvjpLoiu-101">
          <mxGeometry width="50" height="50" relative="1" as="geometry">
            <mxPoint x="60" y="540" as="sourcePoint" />
            <mxPoint x="420" y="670" as="targetPoint" />
          </mxGeometry>
        </mxCell>
        <mxCell id="nl0A60HQpfqVXvjpLoiu-109" value="type" style="text;html=1;align=center;verticalAlign=middle;whiteSpace=wrap;rounded=0;" vertex="1" parent="1">
          <mxGeometry x="30" y="510" width="60" height="30" as="geometry" />
        </mxCell>
      </root>
    </mxGraphModel>
  </diagram>
</mxfile>
